<svg id="svg" version="1.1" xmlns="http://www.w3.org/2000/svg" xmlns:xlink="http://www.w3.org/1999/xlink" width="400" height="400" viewBox="0, 0, 400,400"><g id="svgg"><path id="path0" d="M207.439 108.623 C 207.207 108.754,205.628 109.386,203.930 110.026 C 200.444 111.341,200.617 111.268,197.193 112.863 C 190.326 116.061,185.080 118.983,178.793 123.110 C 175.385 125.348,168.975 130.058,167.189 131.637 C 160.550 137.506,155.588 142.507,155.997 142.916 C 156.124 143.043,157.929 142.895,160.008 142.586 C 168.450 141.335,168.074 141.366,168.837 141.866 C 171.693 143.737,171.527 151.259,168.620 151.692 C 168.125 151.766,166.709 151.967,165.474 152.139 C 158.664 153.089,156.687 153.451,149.333 155.096 C 146.336 155.766,141.162 157.510,141.012 157.900 C 140.942 158.081,141.858 159.797,143.046 161.711 C 144.235 163.626,145.940 166.651,146.836 168.434 C 148.042 170.835,148.912 172.144,150.194 173.487 C 164.363 188.327,171.209 204.656,171.233 223.676 C 171.247 234.646,176.608 242.453,185.829 244.931 C 194.338 247.218,216.141 241.217,232.281 232.147 C 235.951 230.084,237.802 228.926,241.896 226.132 C 247.718 222.158,248.558 221.703,251.789 220.777 C 256.355 219.467,256.354 219.469,255.632 215.873 C 255.094 213.187,254.316 211.488,252.568 209.180 C 250.928 207.013,250.920 206.877,252.437 206.877 C 258.320 206.877,263.015 212.304,263.286 219.416 C 263.293 219.596,263.835 219.873,264.491 220.030 C 267.152 220.667,267.728 220.862,269.570 221.752 C 272.760 223.294,274.624 224.869,282.386 232.586 C 286.477 236.654,290.330 240.348,290.947 240.796 C 294.888 243.650,300.643 242.101,302.768 237.614 C 303.784 235.469,303.623 234.332,301.723 230.211 C 301.412 229.535,300.909 228.335,300.606 227.544 C 300.303 226.753,299.949 225.853,299.821 225.544 C 299.692 225.235,299.403 224.540,299.179 224.000 C 298.752 222.973,297.548 219.151,296.967 216.982 C 296.780 216.288,296.154 214.393,295.575 212.772 C 294.425 209.551,293.812 207.493,293.362 205.333 C 293.201 204.561,292.930 203.361,292.759 202.667 C 292.180 200.306,292.086 189.722,292.613 186.140 C 293.490 180.177,294.316 177.457,298.253 167.579 C 302.330 157.347,303.208 154.362,303.260 150.553 C 303.281 148.985,303.223 147.626,303.132 147.532 C 303.040 147.439,299.314 151.043,294.851 155.541 C 275.814 174.728,276.165 174.422,271.128 176.199 C 262.306 179.311,255.639 178.017,245.806 171.284 C 243.620 169.786,241.577 168.420,241.266 168.246 C 240.956 168.073,239.565 167.267,238.175 166.456 C 236.154 165.277,230.119 162.253,226.947 160.830 C 222.830 158.983,213.276 155.873,208.000 154.662 C 206.285 154.268,202.567 153.487,201.404 153.276 C 198.756 152.796,196.772 150.998,196.772 149.080 C 196.772 148.111,196.253 147.369,195.569 147.359 C 193.524 147.328,190.877 143.989,190.877 141.441 C 190.877 139.909,192.108 134.786,193.297 131.368 C 197.804 118.416,200.702 113.791,206.589 110.158 C 207.519 109.583,208.281 109.014,208.281 108.892 C 208.281 108.770,208.565 108.616,208.912 108.549 C 209.394 108.456,209.344 108.422,208.702 108.406 C 208.239 108.394,207.670 108.491,207.439 108.623 M169.424 157.939 C 180.657 161.716,179.760 178.588,168.197 181.020 C 165.348 181.620,164.947 181.138,166.706 179.229 C 171.380 174.158,171.267 164.442,166.473 159.189 C 165.855 158.511,165.416 157.848,165.498 157.715 C 165.744 157.317,167.946 157.442,169.424 157.939 M125.754 164.582 C 108.477 173.287,94.551 184.625,83.146 199.273 C 81.304 201.639,80.922 202.292,81.141 202.701 C 82.086 204.466,90.898 213.433,95.861 217.680 C 96.941 218.604,97.888 219.435,97.965 219.527 C 101.690 223.949,120.622 234.974,131.740 239.195 C 136.596 241.038,136.114 241.216,138.330 236.772 C 141.825 229.761,144.096 222.594,145.177 215.158 C 145.948 209.853,145.593 195.678,144.590 191.719 C 144.453 191.179,144.127 189.789,143.865 188.632 C 141.896 179.920,136.442 168.342,131.733 162.878 L 130.947 161.966 125.754 164.582 M223.849 168.824 C 231.315 172.478,233.179 182.685,227.408 188.321 C 223.915 191.732,217.482 193.086,220.017 189.877 C 224.920 183.668,224.759 174.064,219.671 169.284 C 217.908 167.627,220.761 167.314,223.849 168.824 M189.249 178.842 C 200.955 181.326,202.198 198.561,190.918 201.984 C 187.643 202.978,186.649 202.449,188.211 200.543 C 192.870 194.857,192.749 185.826,187.943 180.491 C 187.595 180.105,187.236 179.577,187.145 179.316 C 187.005 178.917,187.101 178.786,187.705 178.548 C 187.736 178.536,188.431 178.668,189.249 178.842 M117.815 191.881 C 127.284 195.002,126.689 208.612,116.980 210.986 C 108.617 213.032,101.889 204.063,106.041 196.406 C 108.184 192.453,113.432 190.437,117.815 191.881 M232.561 192.990 C 235.719 193.496,239.947 197.595,241.220 201.383 C 243.424 207.947,238.457 215.889,231.849 216.367 C 229.697 216.523,229.615 216.210,231.268 214.159 C 234.718 209.876,235.421 203.097,232.954 197.881 C 232.486 196.891,232.016 196.015,231.911 195.935 C 230.329 194.736,229.540 192.419,230.801 192.679 C 231.152 192.751,231.944 192.891,232.561 192.990 M209.943 197.515 C 213.127 199.168,216.109 203.363,216.748 207.090 C 217.796 213.203,212.445 220.070,206.633 220.070 C 204.809 220.070,204.773 219.949,206.090 218.286 C 210.838 212.291,210.740 203.912,205.855 198.205 C 205.311 197.569,204.963 196.917,205.073 196.740 C 205.401 196.208,208.318 196.673,209.943 197.515 M191.860 216.182 C 199.947 218.237,203.261 229.823,197.490 235.867 C 193.967 239.557,186.996 241.196,189.799 237.675 C 194.533 231.731,194.486 223.595,189.683 217.744 C 187.989 215.679,188.484 215.324,191.860 216.182 M215.439 269.312 C 208.527 271.547,203.174 271.886,200.151 270.278 C 198.444 269.370,198.445 270.141,200.152 271.886 C 205.169 277.015,211.370 280.353,218.386 281.701 C 221.496 282.298,221.779 282.251,222.652 280.988 L 223.410 279.892 221.911 276.858 C 220.162 273.317,219.763 272.428,218.948 270.246 C 218.258 268.396,218.265 268.398,215.439 269.312 " stroke="none" fill="#d2e2eb" fill-rule="evenodd"></path><path id="path1" d="M0.000 200.000 L 0.000 400.000 200.000 400.000 L 400.000 400.000 400.000 200.000 L 400.000 0.000 200.000 0.000 L 0.000 0.000 0.000 200.000 M227.826 95.798 C 230.982 97.458,231.038 100.651,227.985 104.876 C 216.955 120.145,211.376 131.046,208.290 143.358 C 207.926 144.808,208.441 145.133,212.632 146.098 C 216.111 146.901,223.071 149.102,226.386 150.449 C 236.812 154.685,245.314 159.258,254.655 165.655 C 255.074 165.941,255.547 166.175,255.708 166.175 C 255.869 166.175,256.000 166.271,256.000 166.387 C 256.000 167.253,261.667 168.268,264.281 167.871 C 269.313 167.106,270.177 166.347,295.349 140.565 C 301.176 134.597,302.120 134.051,304.502 135.270 C 307.284 136.694,312.899 144.627,314.525 149.429 C 318.141 160.110,317.115 168.746,310.454 183.719 C 306.126 193.448,305.002 200.011,306.093 209.186 C 306.308 210.996,306.610 212.890,306.764 213.396 C 307.966 217.360,309.208 221.169,309.489 221.754 C 309.675 222.140,309.955 222.772,310.113 223.158 C 311.670 226.966,312.287 228.391,312.477 228.618 C 312.601 228.764,312.702 229.045,312.702 229.241 C 312.702 229.438,313.015 230.265,313.398 231.080 C 319.683 244.454,318.140 258.120,309.082 269.312 C 306.476 272.532,304.100 273.559,301.868 272.430 C 301.064 272.023,295.986 267.108,279.806 251.076 C 269.367 240.733,268.213 240.044,261.856 240.359 C 258.174 240.541,256.488 241.085,253.799 242.958 C 247.426 247.396,241.578 250.830,234.667 254.192 C 231.965 255.507,229.535 256.704,229.267 256.852 C 228.999 257.001,228.591 257.123,228.361 257.123 C 227.299 257.123,227.058 258.288,227.662 260.508 C 229.967 268.986,233.042 274.989,238.893 282.431 C 242.131 286.550,242.275 288.375,239.549 290.774 C 238.079 292.069,237.634 292.161,231.691 292.397 C 212.257 293.168,195.637 285.255,187.963 271.579 C 186.873 269.636,185.942 268.111,185.597 267.704 C 185.280 267.330,184.509 267.290,180.123 267.416 C 168.506 267.749,155.061 266.132,144.842 263.172 C 144.147 262.970,143.011 262.648,142.316 262.456 C 140.361 261.915,138.289 261.306,137.825 261.135 C 137.593 261.050,136.267 260.566,134.877 260.060 C 130.291 258.389,129.895 258.228,125.491 256.242 C 120.219 253.863,114.588 250.928,110.981 248.679 C 109.516 247.765,108.274 247.018,108.222 247.018 C 107.635 247.018,97.455 239.538,93.895 236.490 C 87.094 230.670,78.099 221.570,74.908 217.282 C 74.655 216.942,74.116 216.262,73.711 215.771 C 72.411 214.194,70.606 211.822,69.829 210.667 C 69.414 210.049,68.710 209.032,68.265 208.406 C 66.135 205.407,66.837 203.379,72.673 195.679 C 73.538 194.538,74.498 193.266,74.807 192.853 C 81.827 183.470,95.614 170.728,106.246 163.797 C 107.635 162.891,108.835 162.064,108.912 161.959 C 108.989 161.854,109.179 161.718,109.333 161.656 C 109.596 161.551,111.740 160.319,114.770 158.531 C 118.380 156.401,126.453 152.446,129.540 151.294 C 130.000 151.122,130.758 150.818,131.224 150.618 C 133.266 149.741,133.910 149.495,136.559 148.577 C 139.888 147.424,139.714 147.552,141.378 145.023 C 147.090 136.340,158.185 125.379,168.671 118.058 C 171.232 116.270,177.187 112.281,177.294 112.281 C 177.349 112.281,178.248 111.756,179.293 111.116 C 197.219 100.123,221.487 92.464,227.826 95.798 M222.887 281.245 C 222.406 282.144,222.549 282.386,223.562 282.386 C 224.689 282.386,224.864 282.197,224.537 281.333 C 224.243 280.553,223.285 280.502,222.887 281.245 " stroke="none" fill="#2c6ccb" fill-rule="evenodd"></path><path id="path2" d="M219.649 95.713 C 217.321 95.912,216.249 96.119,211.509 97.288 C 210.582 97.517,209.509 97.772,209.123 97.855 C 208.737 97.939,208.168 98.123,207.860 98.266 C 207.551 98.408,206.540 98.769,205.614 99.069 C 203.567 99.732,200.256 100.939,199.298 101.372 C 198.912 101.546,198.344 101.790,198.035 101.913 C 196.144 102.668,194.673 103.361,189.895 105.743 C 186.961 107.205,184.309 108.553,184.000 108.738 C 183.691 108.922,182.758 109.448,181.926 109.905 C 181.094 110.363,180.209 110.863,179.960 111.018 C 179.711 111.172,178.686 111.793,177.683 112.397 C 176.680 113.002,175.274 113.917,174.559 114.432 C 173.843 114.947,173.175 115.368,173.073 115.368 C 172.972 115.368,172.736 115.495,172.550 115.651 C 172.150 115.983,166.116 120.371,165.217 120.982 C 164.570 121.423,161.927 123.535,161.684 123.806 C 161.607 123.892,161.276 124.145,160.948 124.368 C 157.695 126.586,148.402 136.059,144.887 140.740 C 144.062 141.838,143.147 143.022,142.852 143.371 C 142.557 143.719,142.316 144.060,142.316 144.129 C 142.316 144.912,139.625 147.935,138.789 148.092 C 138.255 148.192,137.749 148.386,137.665 148.523 C 137.580 148.660,137.280 148.772,136.998 148.772 C 136.716 148.772,136.123 148.961,135.681 149.191 C 135.239 149.422,134.681 149.611,134.442 149.612 C 134.203 149.613,133.887 149.719,133.740 149.848 C 133.594 149.977,132.842 150.303,132.070 150.571 C 131.298 150.840,129.972 151.380,129.123 151.771 C 128.274 152.161,127.326 152.579,127.018 152.698 C 126.061 153.068,116.710 157.752,115.228 158.604 C 111.972 160.476,111.673 160.659,107.930 163.074 C 105.026 164.946,99.054 169.184,98.807 169.547 C 98.730 169.661,98.161 170.094,97.544 170.511 C 96.926 170.928,95.916 171.734,95.298 172.301 C 94.680 172.869,93.543 173.827,92.771 174.430 C 89.882 176.689,79.831 187.128,76.393 191.440 C 74.486 193.832,72.690 196.071,72.401 196.414 C 72.112 196.758,71.563 197.515,71.181 198.098 C 70.799 198.681,69.844 200.081,69.060 201.209 C 66.470 204.934,66.959 206.795,72.311 213.574 C 72.998 214.445,73.656 215.284,73.772 215.439 C 80.789 224.767,91.522 234.864,104.285 244.143 C 104.877 244.573,107.913 246.608,108.365 246.877 C 108.624 247.032,109.327 247.445,109.927 247.796 C 110.527 248.147,111.523 248.750,112.140 249.136 C 112.758 249.522,113.579 249.989,113.965 250.174 C 114.351 250.359,115.425 250.958,116.351 251.503 C 117.982 252.464,121.609 254.286,124.491 255.591 C 125.263 255.941,126.570 256.555,127.394 256.956 C 128.219 257.356,129.073 257.684,129.293 257.684 C 129.512 257.684,129.911 257.804,130.179 257.951 C 131.287 258.559,135.972 260.325,137.336 260.650 C 137.762 260.751,138.180 260.946,138.265 261.084 C 138.350 261.221,138.770 261.333,139.198 261.333 C 139.626 261.333,140.071 261.428,140.187 261.544 C 140.303 261.659,140.987 261.899,141.707 262.076 C 142.428 262.253,143.712 262.597,144.561 262.841 C 145.411 263.085,146.989 263.485,148.070 263.730 C 149.151 263.975,150.414 264.290,150.877 264.431 C 151.340 264.571,152.540 264.817,153.544 264.978 C 154.547 265.138,156.442 265.462,157.754 265.696 C 159.067 265.931,161.340 266.237,162.807 266.377 C 164.274 266.516,166.168 266.753,167.018 266.902 C 167.867 267.052,172.391 267.178,177.072 267.183 C 185.973 267.192,186.169 267.218,186.554 268.446 C 186.659 268.780,187.169 269.718,187.688 270.532 C 188.207 271.345,188.632 272.077,188.632 272.158 C 188.632 272.310,190.529 274.928,191.557 276.194 C 194.110 279.339,202.155 286.035,203.380 286.035 C 203.580 286.035,203.785 286.140,203.836 286.269 C 203.939 286.527,208.671 288.842,209.094 288.842 C 209.239 288.842,209.716 289.024,210.153 289.246 C 210.590 289.468,211.705 289.857,212.632 290.109 C 213.558 290.362,214.568 290.676,214.877 290.806 C 215.186 290.937,216.070 291.119,216.842 291.212 C 217.614 291.305,218.877 291.497,219.649 291.638 C 222.684 292.196,237.449 291.992,238.423 291.379 C 241.882 289.200,241.952 286.733,238.671 282.591 C 234.866 277.789,230.899 271.098,229.646 267.368 C 229.439 266.751,229.109 265.867,228.914 265.404 C 228.106 263.485,227.088 259.677,227.088 258.574 C 227.088 257.330,227.020 257.395,229.193 256.555 C 231.797 255.549,241.821 250.357,244.707 248.520 C 245.521 248.003,246.239 247.579,246.303 247.579 C 246.367 247.579,248.354 246.282,250.719 244.696 C 255.009 241.819,256.718 240.842,257.460 240.842 C 257.676 240.842,258.001 240.694,258.182 240.512 C 258.671 240.024,265.977 240.049,267.237 240.544 C 271.087 242.056,270.695 241.713,286.789 257.610 C 300.258 270.915,302.403 272.842,303.735 272.842 C 305.078 272.842,307.513 271.104,309.053 269.047 C 311.451 265.842,313.813 261.764,314.658 259.368 C 314.848 258.828,315.104 258.133,315.225 257.825 C 315.503 257.121,316.209 254.381,316.636 252.351 C 317.444 248.509,316.656 240.028,315.111 235.930 C 314.514 234.345,313.953 232.980,313.360 231.667 C 312.998 230.866,312.702 230.086,312.702 229.935 C 312.702 229.783,312.520 229.302,312.298 228.865 C 311.617 227.523,310.456 224.839,310.456 224.606 C 310.456 224.485,310.209 223.874,309.906 223.248 C 309.298 221.988,308.692 220.372,308.030 218.246 C 307.790 217.474,307.462 216.526,307.301 216.140 C 305.629 212.123,304.935 202.180,305.958 196.912 C 306.885 192.139,307.264 190.828,308.632 187.649 C 308.832 187.186,309.339 185.923,309.760 184.842 C 310.532 182.861,311.180 181.322,311.620 180.425 C 311.752 180.157,311.860 179.813,311.860 179.661 C 311.860 179.508,312.158 178.717,312.522 177.902 C 314.198 174.157,314.939 171.846,315.941 167.239 C 316.489 164.717,316.409 157.471,315.807 155.088 C 315.612 154.316,315.325 153.179,315.171 152.561 C 314.597 150.270,313.297 146.927,312.388 145.404 C 312.250 145.172,312.051 144.793,311.945 144.561 C 310.830 142.111,305.977 136.316,304.326 135.462 C 302.080 134.301,301.790 134.503,293.006 143.344 C 288.890 147.487,282.163 154.259,278.058 158.393 C 273.953 162.527,270.311 166.032,269.964 166.182 C 269.617 166.332,269.144 166.567,268.912 166.704 C 267.527 167.522,264.123 168.423,262.438 168.416 C 259.300 168.404,256.878 167.379,251.230 163.671 C 248.649 161.976,247.947 161.538,247.300 161.218 C 246.904 161.022,242.874 158.608,241.965 158.022 C 241.733 157.873,241.354 157.678,241.123 157.589 C 240.891 157.500,240.260 157.184,239.719 156.887 C 239.179 156.591,237.916 155.957,236.912 155.480 C 235.909 155.003,234.898 154.497,234.667 154.357 C 234.435 154.217,234.056 154.028,233.825 153.938 C 233.593 153.848,232.770 153.470,231.996 153.098 C 231.222 152.726,230.499 152.421,230.390 152.421 C 230.280 152.421,229.524 152.117,228.709 151.746 C 226.983 150.959,223.640 149.721,222.524 149.456 C 222.098 149.354,221.680 149.159,221.595 149.022 C 221.510 148.884,221.194 148.772,220.892 148.772 C 220.590 148.772,220.124 148.661,219.856 148.526 C 219.198 148.195,214.682 146.893,211.930 146.242 C 207.638 145.226,207.526 145.138,208.013 143.134 C 208.217 142.298,208.486 141.494,208.613 141.347 C 208.739 141.201,208.842 140.794,208.842 140.445 C 208.842 140.095,209.016 139.394,209.229 138.887 C 209.443 138.380,209.773 137.460,209.964 136.842 C 210.154 136.225,210.468 135.340,210.662 134.877 C 210.855 134.414,211.361 133.151,211.786 132.070 C 213.082 128.775,216.496 121.692,217.536 120.140 C 217.795 119.754,218.295 118.870,218.648 118.175 C 219.001 117.481,219.375 116.849,219.480 116.772 C 219.584 116.695,220.306 115.621,221.084 114.386 C 221.862 113.151,223.218 111.130,224.096 109.895 C 224.974 108.660,225.815 107.460,225.965 107.228 C 226.114 106.996,226.902 105.852,227.715 104.685 C 229.841 101.631,229.895 101.509,229.895 99.686 C 229.895 97.547,228.346 95.719,226.534 95.719 C 225.958 95.719,224.741 95.669,223.831 95.608 C 222.920 95.547,221.039 95.594,219.649 95.713 M214.585 106.648 C 214.674 106.792,214.434 107.582,214.050 108.403 C 213.243 110.132,210.095 117.465,205.699 127.860 C 204.001 131.874,202.296 135.853,201.909 136.702 C 201.278 138.089,200.111 140.805,198.318 145.059 C 197.975 145.873,197.613 146.621,197.514 146.720 C 197.194 147.040,197.322 149.043,197.723 150.004 C 198.470 151.791,199.691 152.404,204.211 153.264 C 208.660 154.110,211.433 154.847,218.667 157.103 C 220.599 157.706,223.828 158.951,224.126 159.209 C 224.273 159.335,224.570 159.439,224.786 159.439 C 225.313 159.439,227.690 160.483,232.702 162.918 C 235.254 164.157,238.058 165.673,239.860 166.786 C 240.323 167.072,240.923 167.382,241.193 167.475 C 241.463 167.568,241.684 167.741,241.684 167.860 C 241.684 167.978,241.905 168.149,242.175 168.240 C 242.446 168.331,242.910 168.566,243.207 168.764 C 244.933 169.910,248.898 172.662,249.213 172.933 C 249.957 173.574,253.658 175.343,255.298 175.841 C 256.225 176.123,257.247 176.452,257.571 176.572 C 261.682 178.100,272.947 175.970,276.019 173.084 C 276.201 172.912,276.856 172.402,277.474 171.949 C 278.091 171.497,280.725 168.971,283.327 166.335 C 296.334 153.159,302.747 146.807,303.043 146.807 C 303.467 146.807,303.878 147.332,304.143 148.211 C 304.259 148.596,304.575 149.418,304.845 150.035 C 308.493 158.368,307.561 166.626,301.487 179.789 C 301.345 180.098,300.770 181.522,300.211 182.954 C 295.622 194.703,294.748 205.758,297.543 216.702 C 297.681 217.242,297.974 218.389,298.194 219.250 C 298.413 220.110,299.185 222.321,299.909 224.162 C 301.317 227.744,301.282 227.658,302.579 230.546 C 303.052 231.599,303.439 232.616,303.439 232.806 C 303.439 232.995,303.552 233.271,303.690 233.418 C 303.828 233.564,304.069 234.253,304.226 234.947 C 304.383 235.642,304.897 237.127,305.368 238.248 C 308.031 244.587,307.679 252.724,304.484 258.665 C 303.113 261.214,303.833 261.733,290.747 248.760 C 277.446 235.573,277.605 235.721,275.088 234.196 C 266.181 228.800,256.298 229.689,246.035 236.808 C 229.266 248.441,211.468 255.141,191.719 257.255 C 189.481 257.495,187.207 257.750,186.667 257.822 C 179.788 258.738,165.645 257.831,155.368 255.815 C 153.458 255.440,151.930 255.070,146.246 253.602 C 144.440 253.136,141.184 252.002,141.056 251.794 C 140.977 251.667,141.873 250.018,143.046 248.131 C 154.407 229.860,157.962 208.664,153.262 187.228 C 152.269 182.701,149.475 174.228,148.541 172.912 C 148.267 172.526,147.340 170.821,146.480 169.123 C 145.620 167.425,144.649 165.593,144.322 165.053 C 143.994 164.512,143.609 163.818,143.467 163.509 C 143.324 163.200,142.501 161.883,141.638 160.581 C 139.877 157.923,139.830 157.759,140.671 157.233 C 141.485 156.725,147.711 154.718,149.465 154.397 C 150.242 154.256,151.825 153.929,152.982 153.672 C 156.539 152.881,161.663 151.990,165.053 151.573 C 170.283 150.929,171.314 149.503,169.938 144.823 C 169.028 141.730,168.246 141.653,157.633 143.608 C 153.377 144.392,153.828 143.394,160.756 136.687 C 166.434 131.190,174.987 124.537,181.113 120.851 C 182.598 119.957,186.967 117.390,187.930 116.846 C 191.052 115.081,201.629 110.035,202.207 110.035 C 202.408 110.035,202.660 109.949,202.765 109.843 C 203.874 108.734,214.157 105.955,214.585 106.648 M133.451 164.203 C 137.380 169.809,139.969 174.791,142.432 181.480 C 142.831 182.564,143.158 183.644,143.158 183.880 C 143.158 184.116,143.261 184.429,143.387 184.575 C 143.512 184.722,143.835 185.789,144.104 186.947 C 144.374 188.105,144.713 189.495,144.860 190.035 C 147.289 199.008,146.902 213.202,143.938 223.860 C 143.637 224.940,143.285 226.204,143.156 226.667 C 142.434 229.255,140.754 233.338,138.881 237.053 C 137.127 240.533,136.997 240.761,136.577 241.110 C 136.360 241.290,135.257 242.819,134.126 244.508 C 131.711 248.115,131.888 248.059,128.223 246.395 C 109.958 238.107,93.471 224.905,81.028 208.603 C 78.393 205.150,78.343 205.032,79.118 204.038 C 79.405 203.670,79.866 202.926,80.142 202.386 C 80.611 201.470,83.509 197.617,84.682 196.351 C 84.968 196.042,85.494 195.411,85.852 194.947 C 89.089 190.755,98.243 181.979,103.860 177.682 C 104.554 177.151,105.186 176.642,105.263 176.551 C 105.827 175.885,113.844 170.386,114.250 170.386 C 114.364 170.386,114.605 170.208,114.786 169.991 C 114.966 169.773,115.518 169.385,116.013 169.128 C 116.508 168.871,117.165 168.511,117.474 168.328 C 121.148 166.152,128.872 162.184,130.526 161.622 C 131.251 161.376,131.827 161.885,133.451 164.203 M217.269 263.100 C 218.682 268.639,222.415 277.486,224.707 280.726 C 226.117 282.720,225.756 283.064,222.494 282.835 C 212.359 282.125,201.921 276.472,197.163 269.117 C 195.391 266.378,195.174 266.638,200.041 265.672 C 203.592 264.967,209.071 263.663,214.035 262.341 C 216.949 261.565,216.873 261.548,217.269 263.100 " stroke="none" fill="#074666" fill-rule="evenodd"></path><path id="path3" d="M219.368 95.424 C 218.751 95.526,220.330 95.610,222.877 95.610 C 225.425 95.610,227.130 95.523,226.667 95.417 C 225.602 95.173,220.852 95.178,219.368 95.424 M213.474 96.450 C 210.385 97.195,207.602 98.058,208.982 97.842 C 209.446 97.770,210.582 97.522,211.509 97.291 C 212.435 97.060,214.140 96.664,215.298 96.411 C 216.456 96.157,217.456 95.898,217.520 95.834 C 217.799 95.560,216.076 95.822,213.474 96.450 M228.702 96.832 C 229.914 98.050,230.499 101.208,229.614 101.754 C 229.460 101.850,229.333 102.071,229.333 102.246 C 229.333 102.420,229.519 102.318,229.745 102.019 C 230.937 100.443,229.995 96.947,228.110 95.950 C 227.779 95.775,228.046 96.172,228.702 96.832 M204.211 99.201 C 199.872 100.749,198.396 101.367,198.585 101.556 C 198.669 101.640,199.022 101.561,199.369 101.382 C 200.170 100.967,203.385 99.784,205.754 99.033 C 206.758 98.715,207.699 98.344,207.846 98.210 C 208.303 97.790,207.712 97.951,204.211 99.201 M195.649 102.567 C 191.018 104.581,183.779 108.365,179.293 111.116 C 178.248 111.756,177.349 112.281,177.294 112.281 C 177.187 112.281,171.232 116.270,168.671 118.058 C 158.464 125.184,146.159 137.293,141.598 144.702 C 140.214 146.950,139.511 147.596,137.891 148.109 C 136.980 148.397,136.500 148.662,136.785 148.718 C 137.063 148.773,137.442 148.696,137.628 148.547 C 137.813 148.398,138.372 148.188,138.870 148.082 C 139.641 147.917,142.316 144.848,142.316 144.129 C 142.316 144.060,142.557 143.719,142.852 143.371 C 143.147 143.022,144.062 141.838,144.887 140.740 C 148.402 136.059,157.695 126.586,160.948 124.368 C 161.276 124.145,161.607 123.892,161.684 123.806 C 161.927 123.535,164.570 121.423,165.217 120.982 C 166.116 120.371,172.150 115.983,172.550 115.651 C 172.736 115.495,172.972 115.368,173.073 115.368 C 173.175 115.368,173.843 114.947,174.559 114.432 C 175.274 113.917,176.680 113.002,177.683 112.397 C 178.686 111.793,179.711 111.172,179.960 111.018 C 180.209 110.863,181.094 110.363,181.926 109.905 C 182.758 109.448,183.691 108.922,184.000 108.738 C 186.018 107.531,197.092 102.175,197.570 102.175 C 197.730 102.175,197.940 102.049,198.035 101.895 C 198.298 101.469,197.942 101.570,195.649 102.567 M227.872 104.478 C 226.386 106.582,225.949 107.378,226.855 106.332 C 227.978 105.036,229.390 102.980,229.252 102.843 C 229.180 102.770,228.558 103.506,227.872 104.478 M212.051 106.674 C 210.576 106.967,205.050 108.796,204.417 109.201 C 203.724 109.644,204.433 109.456,207.531 108.374 C 209.002 107.860,210.570 107.509,211.390 107.509 C 212.150 107.509,212.772 107.382,212.772 107.228 C 212.772 107.074,212.972 106.947,213.216 106.947 C 214.053 106.947,213.431 107.638,212.189 108.088 C 211.506 108.335,210.387 108.812,209.702 109.146 C 209.017 109.481,208.301 109.754,208.111 109.754 C 207.921 109.754,207.724 109.849,207.673 109.965 C 207.621 110.081,206.947 110.608,206.175 111.138 C 204.208 112.487,201.424 115.250,200.357 116.912 C 199.862 117.684,199.387 118.379,199.301 118.456 C 199.060 118.672,197.614 121.565,197.614 121.831 C 197.614 122.069,196.129 125.488,195.637 126.382 C 195.489 126.650,195.368 127.116,195.368 127.418 C 195.368 127.720,195.242 128.045,195.088 128.140 C 194.933 128.236,194.806 128.527,194.805 128.788 C 194.804 129.050,194.615 129.625,194.384 130.067 C 194.154 130.509,193.966 131.078,193.966 131.330 C 193.968 131.734,193.456 133.473,192.841 135.158 C 191.245 139.530,191.180 142.935,192.661 144.613 C 193.630 145.711,195.676 147.088,196.340 147.088 C 196.750 147.088,196.847 147.344,197.172 149.287 C 197.481 151.130,199.636 152.999,201.404 152.957 C 201.726 152.949,201.487 152.772,200.842 152.541 C 198.915 151.852,198.479 151.523,197.898 150.322 C 197.358 149.207,197.134 147.100,197.514 146.720 C 197.613 146.621,197.975 145.873,198.318 145.059 C 200.111 140.805,201.278 138.089,201.909 136.702 C 202.296 135.853,204.001 131.874,205.699 127.860 C 210.095 117.465,213.243 110.132,214.050 108.403 C 215.018 106.331,214.787 106.131,212.051 106.674 M224.865 108.718 C 222.058 112.982,219.776 116.387,219.539 116.667 C 218.939 117.374,214.718 125.277,214.804 125.531 C 214.844 125.649,215.378 124.771,215.990 123.581 C 218.031 119.612,221.330 114.245,224.446 109.825 C 225.452 108.396,226.174 107.235,226.050 107.244 C 225.926 107.253,225.393 107.917,224.865 108.718 M202.807 109.754 C 202.712 109.909,202.455 110.035,202.237 110.035 C 201.632 110.035,191.154 115.023,187.930 116.846 C 186.967 117.390,182.598 119.957,181.113 120.851 C 174.987 124.537,166.434 131.190,160.756 136.687 C 153.773 143.447,153.373 144.371,157.769 143.585 C 159.073 143.351,161.151 142.983,162.386 142.766 C 163.621 142.550,164.253 142.366,163.789 142.359 C 163.326 142.352,161.265 142.628,159.208 142.974 C 155.344 143.623,154.893 143.565,155.590 142.514 C 156.525 141.102,162.912 134.860,166.423 131.928 C 167.253 131.234,168.074 130.539,168.247 130.383 C 174.491 124.743,190.382 115.245,200.892 110.871 C 203.807 109.657,204.141 109.474,203.432 109.474 C 203.184 109.474,202.902 109.600,202.807 109.754 M213.613 127.767 C 213.151 128.720,212.835 129.560,212.910 129.635 C 212.984 129.709,213.250 129.277,213.501 128.675 C 213.752 128.072,214.136 127.232,214.354 126.807 C 214.573 126.382,214.684 126.035,214.602 126.035 C 214.519 126.035,214.074 126.814,213.613 127.767 M211.858 131.864 C 211.432 132.904,211.088 133.881,211.093 134.035 C 211.099 134.189,211.479 133.434,211.939 132.355 C 212.399 131.277,212.743 130.300,212.703 130.184 C 212.664 130.068,212.283 130.824,211.858 131.864 M210.632 134.907 C 210.528 135.199,210.273 135.865,210.064 136.385 C 209.855 136.906,209.690 137.474,209.696 137.648 C 209.703 137.822,210.018 137.217,210.398 136.304 C 210.777 135.390,211.027 134.583,210.954 134.509 C 210.880 134.436,210.735 134.615,210.632 134.907 M302.877 134.998 C 304.346 135.292,305.044 135.755,306.715 137.547 C 308.897 139.888,311.860 143.910,311.860 144.532 C 311.860 144.665,312.061 144.940,312.306 145.144 C 313.033 145.747,311.380 142.934,309.654 140.632 C 306.484 136.401,304.455 134.696,302.678 134.769 C 301.972 134.798,301.991 134.821,302.877 134.998 M300.772 135.333 C 300.463 135.498,298.087 137.799,295.492 140.448 C 292.896 143.096,287.971 148.074,284.547 151.509 C 281.122 154.944,278.408 157.754,278.515 157.754 C 278.623 157.754,280.243 156.207,282.115 154.316 C 296.976 139.307,300.046 136.259,300.881 135.678 C 301.852 135.004,301.786 134.794,300.772 135.333 M209.168 139.100 C 208.989 139.494,208.851 140.094,208.861 140.434 C 208.872 140.803,209.037 140.547,209.270 139.801 C 209.710 138.386,209.658 138.025,209.168 139.100 M208.485 141.363 C 208.373 141.475,208.285 141.830,208.289 142.152 C 208.297 142.692,208.320 142.698,208.590 142.235 C 208.904 141.695,208.823 141.024,208.485 141.363 M166.915 142.242 C 168.924 142.357,169.300 142.665,169.920 144.702 C 170.155 145.474,170.356 145.827,170.366 145.487 C 170.433 143.396,169.030 142.022,166.898 142.089 L 165.193 142.143 166.915 142.242 M207.896 143.509 C 207.803 143.856,207.725 144.304,207.723 144.505 C 207.718 144.959,209.862 145.957,210.807 145.940 C 211.273 145.932,211.006 145.764,210.015 145.440 C 208.348 144.895,208.025 144.558,208.215 143.561 C 208.380 142.701,208.124 142.659,207.896 143.509 M312.717 145.880 C 312.708 146.065,312.989 146.759,313.339 147.424 C 313.690 148.088,314.153 149.169,314.367 149.826 C 314.582 150.483,314.809 150.969,314.873 150.905 C 314.936 150.842,314.797 150.241,314.565 149.570 C 314.024 148.012,312.736 145.439,312.717 145.880 M211.930 146.246 C 212.161 146.395,212.667 146.511,213.053 146.502 C 213.695 146.488,213.707 146.467,213.193 146.246 C 212.362 145.889,211.377 145.889,211.930 146.246 M170.462 147.368 C 170.462 148.063,170.517 148.347,170.584 148.000 C 170.651 147.653,170.651 147.084,170.584 146.737 C 170.517 146.389,170.462 146.674,170.462 147.368 M215.018 146.982 C 215.712 147.208,216.975 147.593,217.825 147.837 C 218.674 148.081,219.588 148.391,219.856 148.526 C 220.124 148.661,220.566 148.765,220.838 148.757 C 221.111 148.750,220.891 148.570,220.351 148.358 C 218.529 147.644,214.766 146.526,214.258 146.548 C 213.981 146.561,214.323 146.756,215.018 146.982 M295.386 154.175 C 291.355 158.228,285.928 163.700,283.327 166.335 C 280.725 168.971,278.091 171.497,277.474 171.949 C 276.856 172.402,276.201 172.912,276.019 173.084 C 273.562 175.393,266.356 177.267,260.912 177.014 C 258.358 176.895,258.257 176.908,259.789 177.162 C 263.310 177.744,268.459 177.029,272.285 175.428 C 276.052 173.851,277.315 172.743,290.289 159.637 C 300.615 149.206,302.895 147.034,303.226 147.309 C 303.921 147.886,304.330 150.411,303.986 152.001 C 303.819 152.772,303.575 153.972,303.445 154.667 C 303.091 156.545,302.551 158.421,302.277 158.723 C 302.144 158.869,302.035 159.213,302.035 159.485 C 302.035 159.758,301.828 160.459,301.575 161.043 C 301.322 161.627,300.993 162.421,300.844 162.807 C 300.695 163.193,300.414 163.888,300.220 164.351 C 299.657 165.697,299.329 166.511,298.803 167.860 C 298.532 168.554,298.012 169.789,297.647 170.604 C 297.281 171.419,296.982 172.247,296.982 172.445 C 296.982 172.643,296.797 173.050,296.570 173.350 C 296.344 173.650,296.154 174.165,296.149 174.494 C 296.144 174.824,295.952 175.456,295.721 175.898 C 295.490 176.340,295.301 176.915,295.300 177.176 C 295.299 177.437,295.186 177.721,295.049 177.805 C 294.911 177.890,294.730 178.371,294.645 178.875 C 294.560 179.378,294.289 180.674,294.041 181.754 C 293.089 185.916,292.523 192.815,292.832 196.491 C 293.210 200.992,293.565 203.651,294.030 205.474 C 294.286 206.477,294.567 207.677,294.655 208.140 C 294.742 208.604,294.986 209.232,295.196 209.536 C 295.407 209.841,295.579 210.284,295.579 210.520 C 295.579 210.757,296.023 212.403,296.566 214.177 C 297.627 217.648,297.665 217.298,296.686 213.053 C 295.948 209.849,295.771 200.655,296.378 197.053 C 297.372 191.153,299.391 184.332,301.487 179.789 C 307.561 166.626,308.493 158.368,304.845 150.035 C 304.575 149.418,304.259 148.596,304.143 148.211 C 303.480 146.011,303.567 145.952,295.386 154.175 M133.895 149.506 C 131.459 150.465,130.317 151.003,130.703 151.011 C 131.037 151.018,132.896 150.326,133.623 149.923 C 133.860 149.792,134.458 149.596,134.953 149.488 C 135.448 149.379,135.925 149.174,136.013 149.031 C 136.256 148.639,135.888 148.721,133.895 149.506 M169.879 149.707 C 169.509 150.734,169.035 150.986,166.737 151.382 C 166.227 151.470,166.317 151.513,167.069 151.541 C 168.956 151.610,170.586 150.426,170.339 149.166 C 170.279 148.862,170.113 149.058,169.879 149.707 M221.595 149.022 C 221.680 149.159,222.098 149.354,222.524 149.456 C 223.648 149.723,226.989 150.962,228.735 151.758 C 229.564 152.136,230.358 152.407,230.500 152.360 C 230.718 152.287,229.716 151.823,226.386 150.452 C 223.324 149.191,221.332 148.596,221.595 149.022 M129.684 151.216 C 129.453 151.301,128.733 151.607,128.086 151.896 C 127.438 152.185,126.835 152.421,126.746 152.421 C 126.416 152.421,116.393 157.520,115.412 158.187 C 114.233 158.988,114.541 159.089,115.789 158.311 C 116.654 157.773,126.009 153.092,127.018 152.693 C 128.247 152.208,130.246 151.242,130.246 151.133 C 130.246 151.069,130.214 151.028,130.175 151.040 C 130.137 151.052,129.916 151.131,129.684 151.216 M314.952 151.743 C 314.954 152.039,315.084 152.470,315.241 152.702 C 315.449 153.009,315.475 152.896,315.337 152.281 C 315.107 151.249,314.946 151.025,314.952 151.743 M163.322 151.719 C 163.245 151.796,162.119 152.002,160.819 152.176 C 159.519 152.350,158.204 152.605,157.895 152.742 C 157.235 153.035,158.423 152.895,162.947 152.149 C 165.259 151.768,165.712 151.632,164.749 151.609 C 164.041 151.593,163.399 151.642,163.322 151.719 M231.018 152.576 C 231.018 152.784,233.557 153.905,233.702 153.760 C 233.777 153.685,233.203 153.360,232.428 153.038 C 231.652 152.716,231.018 152.508,231.018 152.576 M154.105 153.418 C 152.434 153.896,153.513 153.890,155.649 153.409 C 156.935 153.119,157.101 153.033,156.351 153.043 C 155.811 153.050,154.800 153.219,154.105 153.418 M203.088 153.258 C 204.398 153.597,208.111 154.385,208.398 154.386 C 209.119 154.386,208.136 154.079,205.760 153.560 C 203.257 153.014,201.280 152.790,203.088 153.258 M315.648 154.246 C 315.870 156.051,316.283 157.724,316.307 156.912 C 316.318 156.526,316.143 155.516,315.918 154.667 C 315.589 153.421,315.537 153.340,315.648 154.246 M151.018 154.105 C 150.465 154.462,151.450 154.462,152.281 154.105 C 152.795 153.884,152.783 153.863,152.140 153.849 C 151.754 153.840,151.249 153.956,151.018 154.105 M234.386 154.246 C 234.578 154.477,234.934 154.667,235.176 154.667 C 235.528 154.667,235.507 154.584,235.071 154.255 C 234.358 153.715,233.941 153.710,234.386 154.246 M147.789 154.799 C 146.298 155.291,147.111 155.304,149.053 154.819 C 150.152 154.545,150.354 154.433,149.754 154.431 C 149.291 154.430,148.407 154.596,147.789 154.799 M209.825 154.815 C 210.442 155.038,211.200 155.216,211.509 155.212 C 211.824 155.207,211.578 155.026,210.947 154.799 C 210.330 154.576,209.572 154.398,209.263 154.403 C 208.948 154.407,209.194 154.588,209.825 154.815 M235.789 154.782 C 235.789 154.845,236.389 155.184,237.123 155.534 C 237.856 155.884,238.939 156.472,239.529 156.839 C 240.120 157.206,240.722 157.467,240.867 157.419 C 241.012 157.370,240.010 156.731,238.639 155.999 C 236.253 154.724,235.789 154.526,235.789 154.782 M145.404 155.509 C 145.029 155.751,145.029 155.781,145.404 155.781 C 145.635 155.781,146.014 155.658,146.246 155.509 C 146.620 155.267,146.620 155.237,146.246 155.237 C 146.014 155.237,145.635 155.359,145.404 155.509 M212.632 155.509 C 213.471 155.869,214.172 155.869,213.614 155.509 C 213.382 155.359,212.940 155.244,212.632 155.252 L 212.070 155.268 212.632 155.509 M143.018 156.243 C 139.555 157.553,139.580 157.475,141.638 160.581 C 142.501 161.883,143.324 163.200,143.467 163.509 C 143.609 163.818,143.994 164.512,144.322 165.053 C 144.649 165.593,145.620 167.425,146.480 169.123 C 147.340 170.821,148.267 172.526,148.541 172.912 C 149.898 174.823,152.634 183.918,154.115 191.439 C 156.487 203.477,155.216 219.428,150.918 231.590 C 148.552 238.285,146.541 242.511,143.046 248.131 C 141.873 250.018,140.977 251.667,141.056 251.794 C 141.184 252.002,144.440 253.136,146.246 253.602 C 151.930 255.070,153.458 255.440,155.368 255.815 C 165.645 257.831,179.788 258.738,186.667 257.822 C 187.207 257.750,189.481 257.495,191.719 257.255 C 205.356 255.795,219.501 251.661,231.158 245.728 C 237.194 242.656,240.229 240.836,246.035 236.808 C 256.298 229.689,266.181 228.800,275.088 234.196 C 277.605 235.721,277.446 235.573,290.747 248.760 C 303.833 261.733,303.113 261.214,304.484 258.665 C 307.679 252.724,308.031 244.587,305.368 238.248 C 304.897 237.127,304.383 235.642,304.226 234.947 C 304.069 234.253,303.809 233.558,303.648 233.404 C 303.447 233.211,303.419 233.298,303.558 233.684 C 303.956 234.793,304.075 236.833,303.754 237.031 C 303.580 237.138,303.439 237.471,303.439 237.771 C 303.439 238.071,303.312 238.316,303.158 238.316 C 303.004 238.316,302.873 238.474,302.868 238.667 C 302.850 239.338,300.900 241.109,298.947 242.226 C 296.342 243.717,291.764 242.636,288.917 239.856 C 288.049 239.009,287.329 238.316,287.317 238.316 C 287.304 238.316,284.507 235.568,281.101 232.211 C 273.828 225.040,270.589 222.316,269.336 222.316 C 269.266 222.316,268.542 222.012,267.727 221.640 C 266.912 221.268,265.713 220.888,265.062 220.796 C 262.675 220.457,262.525 220.285,262.397 217.722 C 262.147 212.740,258.179 208.208,253.689 207.776 C 252.115 207.625,252.091 207.680,253.189 208.883 C 255.046 210.916,256.281 214.402,256.281 217.614 C 256.281 220.433,256.168 220.568,253.590 220.834 C 252.754 220.920,252.070 221.088,252.070 221.208 C 252.070 221.327,251.566 221.510,250.949 221.614 C 250.332 221.718,249.756 221.919,249.669 222.060 C 249.582 222.200,249.266 222.316,248.966 222.316 C 248.666 222.316,248.421 222.428,248.421 222.566 C 248.421 222.704,248.127 222.890,247.768 222.980 C 247.408 223.071,246.770 223.463,246.350 223.853 C 245.929 224.243,245.527 224.561,245.455 224.561 C 245.383 224.561,244.456 225.193,243.395 225.965 C 242.334 226.737,241.336 227.368,241.177 227.368 C 241.019 227.368,240.847 227.468,240.795 227.591 C 240.672 227.884,235.296 231.222,232.982 232.442 C 231.979 232.971,231.095 233.467,231.018 233.544 C 230.940 233.621,229.993 234.113,228.912 234.638 C 227.832 235.162,226.568 235.784,226.105 236.021 C 224.774 236.699,224.518 236.821,222.799 237.590 C 221.907 237.989,221.053 238.316,220.901 238.316 C 220.749 238.316,220.405 238.436,220.137 238.583 C 218.999 239.206,212.941 241.516,211.509 241.872 C 211.200 241.949,210.695 242.108,210.386 242.225 C 208.736 242.852,206.858 243.368,206.225 243.368 C 205.830 243.368,205.431 243.491,205.338 243.641 C 205.246 243.791,204.544 243.997,203.778 244.098 C 203.012 244.200,202.386 244.393,202.386 244.527 C 202.386 244.662,202.005 244.772,201.540 244.772 C 201.074 244.772,199.969 244.950,199.083 245.168 C 198.198 245.385,196.872 245.701,196.136 245.869 C 194.446 246.256,187.604 246.276,187.368 245.895 C 187.273 245.740,186.765 245.614,186.239 245.614 C 185.713 245.614,184.867 245.435,184.360 245.216 C 183.853 244.998,182.933 244.600,182.316 244.333 C 181.698 244.066,181.130 243.771,181.053 243.678 C 180.975 243.585,180.570 243.318,180.151 243.085 C 176.943 241.295,171.789 234.637,171.789 232.280 C 171.789 232.028,171.647 231.556,171.472 231.230 C 170.922 230.201,170.636 227.425,170.394 220.772 C 170.265 217.221,170.021 213.875,169.852 213.335 C 169.682 212.796,169.544 211.824,169.544 211.176 C 169.544 210.528,169.432 209.929,169.296 209.845 C 169.160 209.761,168.958 208.964,168.848 208.074 C 168.738 207.184,168.548 206.330,168.427 206.175 C 168.306 206.021,168.147 205.453,168.074 204.912 C 167.927 203.829,166.884 200.703,166.280 199.536 C 166.068 199.126,165.895 198.526,165.895 198.202 C 165.895 197.879,165.768 197.614,165.614 197.614 C 165.460 197.614,165.333 197.412,165.333 197.166 C 165.333 196.920,165.156 196.383,164.940 195.973 C 164.723 195.563,163.997 194.091,163.326 192.702 C 162.654 191.312,162.042 190.112,161.965 190.035 C 161.736 189.806,161.140 188.813,160.870 188.211 C 160.583 187.569,157.772 183.230,157.506 183.018 C 157.409 182.940,156.769 182.123,156.082 181.200 C 154.234 178.717,154.144 178.609,151.848 176.156 C 148.958 173.069,148.556 172.486,146.319 168.140 C 145.246 166.056,143.622 163.175,142.710 161.737 C 140.353 158.020,140.331 157.976,140.681 157.555 C 140.846 157.356,141.123 157.186,141.298 157.178 C 141.823 157.154,145.015 155.829,144.561 155.824 C 144.330 155.821,143.635 156.010,143.018 156.243 M215.018 156.211 C 216.299 156.704,216.803 156.697,215.719 156.200 C 215.256 155.988,214.688 155.819,214.456 155.823 C 214.225 155.828,214.477 156.002,215.018 156.211 M219.228 157.590 C 220.695 158.097,222.388 158.722,222.990 158.979 C 223.593 159.236,224.148 159.384,224.224 159.309 C 224.299 159.233,224.122 159.085,223.830 158.980 C 223.537 158.874,222.667 158.542,221.895 158.241 C 219.585 157.340,217.431 156.645,216.982 156.657 C 216.751 156.663,217.761 157.083,219.228 157.590 M241.662 157.868 C 241.866 158.114,242.140 158.316,242.270 158.316 C 242.400 158.316,243.489 158.916,244.690 159.649 C 247.873 161.593,247.961 161.644,248.421 161.855 C 248.653 161.961,249.221 162.325,249.684 162.664 C 250.937 163.582,252.912 164.797,252.912 164.651 C 252.912 164.436,248.116 161.279,245.746 159.935 C 241.314 157.420,241.273 157.400,241.662 157.868 M166.456 158.216 C 166.456 158.299,166.874 158.855,167.384 159.451 C 168.369 160.602,169.829 163.368,170.384 165.136 C 170.805 166.475,170.825 172.653,170.412 173.425 C 170.243 173.740,170.105 174.250,170.105 174.558 C 170.105 174.866,169.916 175.307,169.684 175.539 C 169.453 175.770,169.263 176.076,169.263 176.218 C 169.263 176.766,168.273 178.431,167.390 179.368 L 166.464 180.351 167.471 180.440 C 168.381 180.520,169.191 180.268,171.195 179.282 C 172.170 178.803,174.322 176.847,174.624 176.165 C 174.767 175.843,175.110 175.200,175.386 174.737 C 176.676 172.575,177.492 166.891,176.593 166.335 C 176.456 166.251,176.261 165.738,176.159 165.196 C 176.058 164.654,175.868 164.211,175.737 164.211 C 175.606 164.211,175.425 163.914,175.334 163.551 C 175.078 162.530,172.269 159.879,170.612 159.095 C 169.247 158.449,166.456 157.859,166.456 158.216 M275.943 160.146 C 274.809 161.306,273.932 162.299,273.994 162.351 C 274.055 162.403,275.078 161.453,276.268 160.240 C 277.457 159.028,278.335 158.035,278.217 158.035 C 278.100 158.035,277.077 158.985,275.943 160.146 M113.502 159.171 C 113.106 159.568,109.470 161.684,109.185 161.684 C 109.061 161.684,108.917 161.789,108.865 161.916 C 108.814 162.044,107.635 162.889,106.246 163.796 C 98.296 168.982,89.960 176.107,81.936 184.571 C 78.553 188.140,71.755 196.480,72.016 196.742 C 72.092 196.817,72.361 196.582,72.614 196.221 C 76.242 191.040,88.569 177.715,92.771 174.430 C 93.543 173.827,94.680 172.869,95.298 172.301 C 95.916 171.734,96.926 170.928,97.544 170.511 C 98.161 170.094,98.730 169.661,98.807 169.547 C 99.054 169.184,105.026 164.946,107.930 163.074 C 111.447 160.805,111.634 160.690,112.893 160.007 C 113.919 159.451,114.500 158.877,114.038 158.877 C 113.905 158.877,113.664 159.010,113.502 159.171 M316.452 161.684 C 316.452 163.151,316.499 163.751,316.557 163.018 C 316.615 162.284,316.615 161.084,316.557 160.351 C 316.499 159.618,316.452 160.218,316.452 161.684 M225.376 159.875 C 225.901 160.103,226.392 160.228,226.467 160.153 C 226.624 159.996,225.253 159.433,224.754 159.450 C 224.571 159.456,224.851 159.647,225.376 159.875 M226.836 160.403 C 227.053 160.621,229.614 161.669,229.614 161.540 C 229.614 161.374,227.335 160.281,226.988 160.281 C 226.837 160.281,226.769 160.336,226.836 160.403 M130.526 161.622 C 128.872 162.184,121.148 166.152,117.474 168.328 C 117.165 168.511,116.508 168.871,116.013 169.128 C 115.518 169.385,114.966 169.773,114.786 169.991 C 114.605 170.208,114.364 170.386,114.250 170.386 C 113.844 170.386,105.827 175.885,105.263 176.551 C 105.186 176.642,104.554 177.151,103.860 177.682 C 98.243 181.979,89.089 190.755,85.852 194.947 C 85.494 195.411,84.968 196.042,84.682 196.351 C 83.509 197.617,80.611 201.470,80.142 202.386 C 79.866 202.926,79.405 203.670,79.118 204.038 C 78.343 205.032,78.393 205.150,81.028 208.603 C 93.471 224.905,109.958 238.107,128.223 246.395 C 131.888 248.059,131.711 248.115,134.126 244.508 C 135.257 242.819,136.360 241.290,136.577 241.110 C 136.997 240.761,137.127 240.533,138.881 237.053 C 140.253 234.332,140.955 232.774,141.729 230.737 C 142.632 228.361,142.396 228.361,141.442 230.737 C 138.192 238.833,135.464 242.701,134.316 240.842 C 134.220 240.688,133.929 240.561,133.668 240.560 C 133.407 240.559,132.831 240.369,132.389 240.139 C 131.947 239.908,131.429 239.719,131.238 239.719 C 131.047 239.719,130.297 239.404,129.571 239.018 C 128.845 238.632,128.072 238.316,127.854 238.316 C 127.358 238.316,125.366 237.407,125.240 237.123 C 125.188 237.007,124.851 236.912,124.491 236.912 C 124.131 236.912,123.794 236.812,123.743 236.688 C 123.691 236.565,122.070 235.677,120.140 234.714 C 118.211 233.751,116.000 232.584,115.228 232.121 C 114.456 231.659,113.635 231.202,113.404 231.106 C 113.172 231.011,112.793 230.774,112.561 230.582 C 112.330 230.389,111.533 229.895,110.791 229.484 C 109.573 228.809,104.781 225.567,103.942 224.851 C 103.755 224.692,103.477 224.561,103.324 224.561 C 103.171 224.561,102.944 224.392,102.821 224.185 C 102.698 223.977,102.218 223.568,101.754 223.276 C 101.291 222.983,100.775 222.616,100.608 222.460 C 100.440 222.303,99.754 221.733,99.084 221.193 C 96.051 218.748,93.757 216.779,92.098 215.192 C 89.395 212.608,83.255 206.309,82.351 205.193 C 81.913 204.653,81.332 204.006,81.058 203.757 C 80.187 202.961,80.498 202.139,82.789 199.181 C 94.757 183.727,112.219 169.979,129.493 162.413 L 131.127 161.698 131.785 162.408 C 133.343 164.089,136.597 169.341,138.815 173.754 C 140.280 176.669,142.856 183.043,142.899 183.859 C 142.915 184.149,142.966 184.171,143.064 183.928 C 143.142 183.734,142.868 182.661,142.456 181.542 C 138.873 171.822,132.386 160.991,130.526 161.622 M230.456 162.105 C 231.379 162.633,231.835 162.639,231.141 162.114 C 230.842 161.888,230.407 161.703,230.175 161.703 C 229.931 161.704,230.049 161.873,230.456 162.105 M231.860 162.642 C 231.860 162.705,233.327 163.535,235.120 164.485 C 239.125 166.606,242.450 168.639,246.962 171.724 C 251.372 174.740,257.208 177.412,257.892 176.728 C 257.968 176.651,257.669 176.509,257.226 176.411 C 254.958 175.912,250.349 173.911,249.213 172.933 C 248.898 172.662,244.933 169.910,243.207 168.764 C 242.910 168.566,242.446 168.331,242.175 168.240 C 241.905 168.149,241.684 167.978,241.684 167.860 C 241.684 167.741,241.463 167.568,241.193 167.475 C 240.923 167.382,240.323 167.073,239.860 166.787 C 236.710 164.847,231.860 162.334,231.860 162.642 M272.801 163.353 C 272.393 163.772,271.508 164.576,270.836 165.140 C 270.164 165.703,269.740 166.166,269.895 166.168 C 270.249 166.172,273.853 162.879,273.675 162.713 C 273.603 162.646,273.210 162.934,272.801 163.353 M253.193 164.877 C 253.193 164.943,253.643 165.263,254.192 165.587 C 254.742 165.911,255.113 166.049,255.017 165.893 C 254.829 165.589,253.193 164.678,253.193 164.877 M315.808 167.598 C 315.603 168.524,315.496 169.344,315.572 169.420 C 315.648 169.496,315.872 168.794,316.070 167.860 C 316.268 166.926,316.375 166.106,316.306 166.037 C 316.238 165.969,316.014 166.671,315.808 167.598 M267.930 166.883 C 267.158 167.255,266.740 167.563,267.001 167.569 C 267.262 167.574,267.554 167.453,267.649 167.298 C 267.745 167.144,268.052 167.018,268.333 167.018 C 268.614 167.018,269.001 166.828,269.193 166.596 C 269.633 166.067,269.621 166.069,267.930 166.883 M256.842 167.158 C 257.228 167.379,257.733 167.559,257.965 167.559 C 258.208 167.559,258.090 167.390,257.684 167.158 C 257.298 166.937,256.793 166.757,256.561 166.757 C 256.318 166.757,256.437 166.926,256.842 167.158 M259.789 168.001 C 261.511 168.503,263.629 168.503,265.123 168.001 L 266.246 167.624 264.982 167.812 C 263.345 168.056,261.236 168.049,259.649 167.795 L 258.386 167.593 259.789 168.001 M220.070 168.542 C 220.070 168.643,220.573 169.407,221.189 170.240 C 222.436 171.929,223.719 174.625,223.719 175.558 C 223.719 175.894,223.854 176.303,224.018 176.467 C 224.380 176.829,224.216 182.347,223.793 184.000 C 223.223 186.233,220.967 190.316,220.304 190.316 C 220.175 190.316,220.070 190.458,220.070 190.633 C 220.070 191.772,224.738 189.952,226.859 187.985 C 231.553 183.632,231.523 177.144,226.785 171.973 C 224.886 169.901,220.070 167.440,220.070 168.542 M314.450 172.983 C 313.972 174.304,314.038 174.662,314.544 173.495 C 314.774 172.966,314.924 172.420,314.878 172.282 C 314.832 172.144,314.639 172.459,314.450 172.983 M313.589 175.310 C 313.410 175.704,313.268 176.178,313.274 176.364 C 313.280 176.550,313.472 176.272,313.700 175.747 C 314.179 174.642,314.078 174.239,313.589 175.310 M312.186 178.679 C 312.006 179.073,311.865 179.547,311.871 179.733 C 311.877 179.918,312.068 179.641,312.296 179.115 C 312.776 178.010,312.674 177.607,312.186 178.679 M188.070 179.528 C 188.070 179.655,188.375 180.081,188.748 180.476 C 189.711 181.494,191.609 185.223,191.835 186.539 C 192.463 190.206,192.450 191.827,191.770 194.947 C 191.331 196.960,188.953 201.263,188.280 201.263 C 188.146 201.263,188.115 201.390,188.211 201.544 C 188.789 202.480,193.024 200.714,195.049 198.692 C 197.118 196.628,197.837 195.035,198.365 191.350 C 198.587 189.802,197.508 186.014,196.566 185.033 C 196.371 184.829,196.211 184.567,196.211 184.451 C 196.211 183.957,192.704 180.769,191.578 180.239 C 190.220 179.601,188.070 179.165,188.070 179.528 M310.796 182.184 C 310.609 182.484,310.461 182.889,310.467 183.084 C 310.474 183.279,310.673 183.080,310.910 182.642 C 311.404 181.732,311.311 181.360,310.796 182.184 M143.260 184.982 C 143.992 187.816,144.529 189.527,144.537 189.053 C 144.550 188.287,143.606 184.772,143.314 184.500 C 143.185 184.379,143.161 184.596,143.260 184.982 M309.379 185.696 C 309.199 186.090,309.058 186.564,309.064 186.750 C 309.070 186.936,309.261 186.658,309.489 186.133 C 309.969 185.028,309.867 184.625,309.379 185.696 M308.483 187.805 C 308.313 188.122,308.216 188.507,308.267 188.659 C 308.317 188.812,308.504 188.552,308.681 188.082 C 309.050 187.105,308.940 186.951,308.483 187.805 M144.681 190.596 C 144.872 191.535,145.139 193.105,145.686 196.491 L 145.935 198.035 145.814 196.211 C 145.658 193.858,145.009 190.104,144.712 189.828 C 144.585 189.710,144.571 190.056,144.681 190.596 M307.133 191.591 C 306.954 191.985,306.813 192.522,306.819 192.785 C 306.826 193.048,307.010 192.763,307.228 192.151 C 307.681 190.880,307.620 190.522,307.133 191.591 M231.811 194.877 C 232.769 196.170,233.407 197.246,234.101 198.737 C 235.425 201.585,235.447 207.970,234.141 210.442 C 233.995 210.720,233.529 211.669,233.107 212.550 C 232.686 213.432,232.043 214.433,231.679 214.775 C 230.505 215.878,230.829 216.124,232.772 215.604 C 237.017 214.469,239.751 211.635,240.970 207.110 C 242.284 202.233,238.178 195.367,232.963 193.720 C 230.792 193.035,230.594 193.235,231.811 194.877 M306.437 194.072 C 306.332 194.347,306.254 194.783,306.263 195.041 C 306.275 195.351,306.373 195.280,306.552 194.831 C 306.701 194.458,306.779 194.023,306.726 193.863 C 306.673 193.703,306.543 193.797,306.437 194.072 M305.740 197.909 C 305.360 200.124,305.316 206.439,305.669 208.140 C 305.811 208.828,305.843 207.787,305.752 205.454 C 305.662 203.164,305.740 200.553,305.947 198.905 C 306.351 195.693,306.224 195.083,305.740 197.909 M70.282 198.947 C 69.553 199.989,68.650 201.261,68.274 201.773 C 67.899 202.285,67.654 202.765,67.729 202.841 C 67.849 202.960,68.921 201.480,71.232 198.008 C 72.390 196.268,71.632 197.018,70.282 198.947 M206.071 197.541 C 206.283 197.809,206.740 198.345,207.088 198.731 C 207.435 199.117,207.719 199.592,207.719 199.787 C 207.719 199.981,207.828 200.140,207.960 200.140 C 209.594 200.140,210.879 211.971,209.404 213.445 C 209.250 213.600,209.123 213.943,209.123 214.209 C 209.123 214.742,208.262 216.507,207.930 216.655 C 207.814 216.706,207.717 216.896,207.714 217.076 C 207.711 217.256,207.273 217.902,206.741 218.512 C 205.539 219.889,205.602 219.951,207.628 219.383 C 211.275 218.360,215.298 214.981,215.298 212.941 C 215.298 212.719,215.456 212.485,215.649 212.421 C 216.110 212.268,216.145 205.744,215.688 205.166 C 215.516 204.949,215.293 204.425,215.191 204.000 C 215.090 203.575,214.883 203.228,214.731 203.228 C 214.580 203.228,214.456 203.096,214.456 202.936 C 214.456 202.775,214.329 202.490,214.173 202.304 C 211.504 199.106,209.981 197.909,207.926 197.390 C 205.977 196.898,205.589 196.930,206.071 197.541 M146.099 205.193 C 146.097 208.975,146.180 211.375,146.283 210.526 C 146.524 208.546,146.526 201.866,146.287 199.860 C 146.185 199.011,146.101 201.411,146.099 205.193 M67.410 203.649 C 67.383 203.958,67.282 204.526,67.186 204.912 C 67.052 205.453,67.089 205.542,67.351 205.299 C 67.540 205.123,67.639 204.563,67.574 204.036 C 67.510 203.514,67.436 203.340,67.410 203.649 M67.401 206.516 C 67.383 206.858,67.752 207.679,68.221 208.341 C 68.690 209.003,69.414 210.049,69.829 210.667 C 70.245 211.284,71.093 212.436,71.713 213.227 C 72.334 214.018,72.993 214.902,73.176 215.192 C 73.360 215.482,73.518 215.566,73.527 215.379 C 73.536 215.192,72.985 214.353,72.302 213.515 C 70.646 211.481,67.750 207.158,67.574 206.456 C 67.445 205.940,67.431 205.944,67.401 206.516 M306.036 210.386 C 306.039 211.004,306.096 211.223,306.163 210.874 C 306.231 210.525,306.228 210.019,306.158 209.751 C 306.088 209.483,306.033 209.768,306.036 210.386 M306.376 212.351 C 306.597 213.960,306.991 215.456,307.340 216.007 C 307.688 216.556,307.690 216.556,307.495 216.000 C 307.387 215.691,307.194 214.996,307.067 214.456 C 306.611 212.513,306.247 211.402,306.376 212.351 M145.726 213.053 C 145.579 215.836,143.947 223.409,142.760 226.818 C 142.520 227.507,142.326 228.196,142.328 228.351 C 142.336 228.811,142.940 227.624,143.174 226.690 C 143.294 226.214,143.637 224.940,143.938 223.860 C 144.473 221.935,145.045 219.364,145.688 216.000 C 145.865 215.074,145.958 213.811,145.894 213.193 C 145.779 212.072,145.778 212.072,145.726 213.053 M73.825 215.746 C 73.825 215.889,74.117 216.321,74.474 216.706 C 74.831 217.091,75.241 217.617,75.386 217.874 C 76.422 219.717,85.999 229.529,91.649 234.537 C 96.617 238.939,106.947 246.709,106.947 246.043 C 106.947 245.966,106.411 245.554,105.754 245.127 C 105.098 244.700,104.435 244.257,104.281 244.143 C 104.126 244.029,102.421 242.771,100.491 241.347 C 90.850 234.234,81.774 225.441,73.918 215.602 C 73.867 215.538,73.825 215.602,73.825 215.746 M189.921 217.042 C 190.216 217.383,190.740 217.982,191.088 218.372 C 191.435 218.762,191.719 219.232,191.719 219.416 C 191.719 219.599,191.885 219.916,192.087 220.120 C 195.222 223.285,194.067 234.568,190.250 238.068 C 189.472 238.781,189.653 238.925,191.088 238.735 C 198.124 237.805,202.293 228.897,198.540 222.813 C 198.185 222.237,197.893 221.668,197.891 221.549 C 197.888 221.340,194.728 218.254,193.935 217.684 C 193.314 217.238,190.802 216.418,190.062 216.420 C 189.391 216.421,189.390 216.425,189.921 217.042 M307.649 217.150 C 307.649 217.546,308.722 220.397,308.946 220.597 C 309.054 220.693,309.049 220.519,308.934 220.211 C 308.820 219.902,308.533 219.081,308.297 218.386 C 307.856 217.087,307.649 216.693,307.649 217.150 M297.557 217.684 C 297.554 217.839,297.742 218.533,297.973 219.228 L 298.393 220.491 298.224 219.368 C 298.065 218.320,297.566 217.060,297.557 217.684 M298.528 221.193 C 299.033 222.862,300.980 227.675,301.102 227.553 C 301.176 227.479,300.641 225.924,299.914 224.096 C 298.638 220.887,298.087 219.733,298.528 221.193 M309.063 221.350 C 309.080 221.821,309.875 223.038,309.876 222.596 C 309.876 222.365,309.691 221.930,309.465 221.631 C 309.238 221.331,309.057 221.205,309.063 221.350 M310.465 224.596 C 310.451 224.878,311.593 227.368,311.736 227.368 C 311.808 227.368,311.683 226.928,311.458 226.389 C 310.986 225.260,310.477 224.341,310.465 224.596 M311.861 227.946 C 311.860 228.187,312.045 228.629,312.272 228.929 C 312.808 229.638,312.813 229.331,312.282 228.313 C 312.052 227.871,311.862 227.706,311.861 227.946 M301.252 228.235 C 302.164 230.585,303.290 233.009,303.364 232.784 C 303.416 232.629,303.075 231.674,302.606 230.662 C 302.138 229.650,301.754 228.691,301.754 228.533 C 301.754 228.374,301.607 228.152,301.426 228.041 C 301.217 227.911,301.153 227.982,301.252 228.235 M312.717 229.942 C 312.689 230.296,313.839 232.781,313.970 232.650 C 314.042 232.577,313.793 231.896,313.416 231.136 C 313.040 230.376,312.725 229.839,312.717 229.942 M314.126 233.263 C 314.125 233.668,314.917 235.275,314.937 234.909 C 314.943 234.811,314.763 234.306,314.537 233.787 C 314.312 233.267,314.127 233.032,314.126 233.263 M261.830 240.203 C 262.334 240.266,263.092 240.265,263.514 240.201 C 263.936 240.137,263.523 240.085,262.596 240.087 C 261.670 240.089,261.325 240.141,261.830 240.203 M316.399 240.561 C 316.394 240.947,316.499 241.516,316.632 241.825 L 316.873 242.386 316.865 241.825 C 316.860 241.516,316.755 240.947,316.632 240.561 L 316.407 239.860 316.399 240.561 M258.098 240.573 C 257.980 240.764,258.192 240.799,258.713 240.674 C 259.789 240.415,259.891 240.281,259.011 240.281 C 258.608 240.281,258.198 240.412,258.098 240.573 M266.667 240.716 C 268.295 241.229,268.756 241.216,267.547 240.691 C 267.027 240.465,266.333 240.289,266.003 240.299 C 265.666 240.310,265.956 240.492,266.667 240.716 M268.912 241.418 C 269.823 242.038,270.930 242.558,270.762 242.287 C 270.587 242.004,268.982 241.119,268.659 241.127 C 268.567 241.129,268.681 241.260,268.912 241.418 M251.033 244.449 C 245.513 248.202,245.363 248.464,250.667 245.086 C 251.053 244.840,252.303 243.974,253.445 243.162 C 256.929 240.684,255.268 241.570,251.033 244.449 M279.610 250.859 C 284.263 255.462,288.590 259.763,289.228 260.416 C 289.865 261.070,290.484 261.607,290.603 261.609 C 290.862 261.615,272.607 243.510,271.746 242.906 C 271.419 242.677,274.958 246.256,279.610 250.859 M317.026 246.877 C 317.026 249.347,317.069 250.320,317.121 249.039 C 317.173 247.758,317.173 245.737,317.121 244.548 C 317.068 243.359,317.026 244.407,317.026 246.877 M107.369 246.458 C 107.452 246.592,107.898 246.890,108.361 247.121 C 108.824 247.352,109.135 247.431,109.052 247.297 C 108.969 247.163,108.523 246.864,108.060 246.633 C 107.597 246.403,107.286 246.323,107.369 246.458 M109.474 247.684 C 109.474 247.750,109.923 248.070,110.473 248.394 C 111.023 248.718,111.394 248.856,111.297 248.700 C 111.109 248.396,109.474 247.485,109.474 247.684 M244.632 248.539 C 242.623 249.855,240.962 250.776,236.351 253.129 C 234.112 254.271,232.220 255.266,232.146 255.340 C 231.703 255.780,236.675 253.328,241.548 250.702 C 243.037 249.900,246.456 247.800,246.456 247.687 C 246.456 247.438,245.956 247.672,244.632 248.539 M112.421 249.560 C 113.583 250.353,116.580 251.879,116.399 251.587 C 116.318 251.456,115.642 251.049,114.898 250.683 C 114.153 250.317,113.209 249.785,112.799 249.500 C 112.389 249.215,111.947 248.983,111.816 248.984 C 111.686 248.985,111.958 249.245,112.421 249.560 M316.476 252.756 C 316.370 253.320,316.347 253.844,316.424 253.921 C 316.501 253.998,316.651 253.600,316.756 253.037 C 316.862 252.474,316.885 251.950,316.808 251.872 C 316.731 251.795,316.581 252.193,316.476 252.756 M315.834 255.680 C 315.655 256.278,315.518 256.942,315.528 257.155 C 315.539 257.369,315.736 256.931,315.967 256.181 C 316.197 255.431,316.335 254.767,316.273 254.705 C 316.211 254.644,316.014 255.082,315.834 255.680 M229.053 256.548 C 228.821 256.677,228.284 256.919,227.860 257.087 C 227.429 257.257,227.088 257.608,227.088 257.881 C 227.088 258.289,227.160 258.267,227.525 257.747 C 227.765 257.404,228.130 257.123,228.335 257.123 C 228.540 257.123,229.070 256.934,229.512 256.703 C 229.954 256.473,230.126 256.291,229.895 256.299 C 229.663 256.307,229.284 256.419,229.053 256.548 M129.684 258.105 C 130.070 258.326,130.575 258.510,130.807 258.515 C 131.039 258.519,130.866 258.334,130.424 258.104 C 129.399 257.569,128.749 257.571,129.684 258.105 M227.108 259.184 C 227.085 259.768,228.221 263.662,228.371 263.512 C 228.424 263.459,228.166 262.347,227.797 261.041 C 227.429 259.735,227.119 258.900,227.108 259.184 M134.142 259.819 C 135.127 260.200,135.983 260.462,136.044 260.401 C 136.170 260.275,132.985 259.078,132.603 259.107 C 132.464 259.118,133.157 259.438,134.142 259.819 M139.368 261.614 C 140.141 261.946,140.416 261.946,140.211 261.614 C 140.115 261.460,139.760 261.342,139.422 261.353 C 138.829 261.372,138.827 261.381,139.368 261.614 M313.263 262.456 C 312.948 263.074,312.754 263.579,312.831 263.579 C 312.908 263.579,313.229 263.074,313.544 262.456 C 313.859 261.839,314.054 261.333,313.976 261.333 C 313.899 261.333,313.578 261.839,313.263 262.456 M214.035 262.341 C 209.071 263.663,203.592 264.967,200.041 265.672 C 195.174 266.638,195.391 266.378,197.163 269.117 C 199.532 272.779,204.945 277.269,209.724 279.536 C 212.528 280.867,212.428 280.570,209.594 279.147 C 204.648 276.666,199.500 272.378,197.788 269.315 C 196.926 267.773,196.930 267.789,197.474 267.789 C 197.705 267.789,197.895 267.905,197.895 268.047 C 197.895 268.396,199.704 269.503,201.258 270.105 C 202.880 270.733,207.327 270.774,209.289 270.178 C 210.047 269.949,211.070 269.759,211.562 269.757 C 212.055 269.756,212.536 269.628,212.632 269.474 C 212.727 269.319,213.065 269.193,213.382 269.193 C 214.006 269.193,216.500 268.446,217.391 267.992 C 218.101 267.631,218.385 268.058,219.913 271.789 C 220.561 273.372,221.929 276.309,222.952 278.316 C 223.998 280.368,224.706 282.071,224.570 282.208 C 224.324 282.455,219.226 282.286,217.684 281.980 C 216.875 281.819,216.870 281.825,217.544 282.118 C 217.930 282.286,219.748 282.562,221.584 282.732 C 225.798 283.121,226.215 282.857,224.721 280.745 C 222.416 277.488,218.686 268.654,217.269 263.100 C 216.873 261.548,216.949 261.565,214.035 262.341 M142.316 262.456 C 142.547 262.606,142.926 262.728,143.158 262.728 C 143.532 262.728,143.532 262.698,143.158 262.456 C 142.926 262.306,142.547 262.184,142.316 262.184 C 141.942 262.184,141.942 262.214,142.316 262.456 M291.368 262.405 C 291.368 262.734,292.739 263.986,292.911 263.814 C 292.989 263.736,292.674 263.334,292.211 262.922 C 291.747 262.509,291.368 262.276,291.368 262.405 M144.842 263.158 C 145.382 263.366,146.014 263.536,146.246 263.536 C 146.477 263.536,146.225 263.366,145.684 263.158 C 145.144 262.950,144.512 262.780,144.281 262.780 C 144.049 262.780,144.302 262.950,144.842 263.158 M147.509 263.860 C 147.818 263.992,148.260 264.101,148.491 264.101 C 148.757 264.101,148.705 264.012,148.351 263.860 C 148.042 263.727,147.600 263.618,147.368 263.618 C 147.103 263.618,147.155 263.708,147.509 263.860 M228.502 264.178 C 228.496 264.431,228.680 264.999,228.911 265.442 C 229.450 266.476,229.459 265.899,228.923 264.664 C 228.698 264.144,228.508 263.926,228.502 264.178 M311.027 266.205 C 310.183 267.462,309.425 268.554,309.342 268.632 C 308.683 269.251,308.397 269.863,309.014 269.336 C 309.685 268.762,312.826 264.166,312.656 264.007 C 312.604 263.959,311.871 264.948,311.027 266.205 M150.316 264.548 C 151.088 264.773,151.972 264.950,152.281 264.941 C 152.979 264.921,151.226 264.419,149.895 264.258 C 149.140 264.166,149.238 264.234,150.316 264.548 M297.168 268.205 C 299.459 270.440,301.407 272.272,301.497 272.275 C 301.587 272.278,299.947 270.607,297.853 268.561 C 295.759 266.516,293.942 264.684,293.816 264.491 C 293.690 264.298,293.455 264.140,293.295 264.140 C 293.134 264.140,294.878 265.969,297.168 268.205 M153.287 265.084 C 153.351 265.139,153.972 265.260,154.667 265.352 C 155.510 265.464,155.743 265.436,155.368 265.270 C 154.832 265.033,153.043 264.873,153.287 265.084 M157.754 265.957 C 158.758 266.174,159.832 266.351,160.140 266.351 L 160.702 266.350 160.140 266.123 C 159.832 265.998,158.758 265.821,157.754 265.729 L 155.930 265.563 157.754 265.957 M163.088 266.670 C 163.937 266.781,165.453 266.950,166.456 267.047 L 168.281 267.222 166.316 266.826 C 165.235 266.608,163.719 266.439,162.947 266.449 L 161.544 266.469 163.088 266.670 M229.502 266.807 C 229.598 267.116,229.746 267.621,229.830 267.930 C 230.004 268.574,230.746 269.737,230.720 269.326 C 230.710 269.175,230.393 268.421,230.014 267.649 C 229.635 266.877,229.405 266.498,229.502 266.807 M185.259 267.449 C 185.812 267.897,186.405 268.802,187.963 271.579 C 189.954 275.128,194.803 280.381,198.994 283.530 C 201.920 285.729,209.298 289.684,210.474 289.684 C 210.802 289.684,209.529 288.860,209.187 288.851 C 208.686 288.838,203.950 286.553,203.836 286.269 C 203.785 286.140,203.580 286.035,203.380 286.035 C 202.155 286.035,194.110 279.339,191.557 276.194 C 190.529 274.928,188.632 272.310,188.632 272.158 C 188.632 272.077,188.189 271.320,187.649 270.475 C 187.109 269.630,186.667 268.801,186.667 268.632 C 186.667 268.225,185.376 266.947,184.964 266.947 C 184.786 266.947,184.918 267.173,185.259 267.449 M174.681 267.438 C 176.195 267.488,178.595 267.488,180.015 267.437 C 181.435 267.386,180.196 267.345,177.263 267.345 C 174.330 267.345,173.168 267.387,174.681 267.438 M230.738 269.895 C 230.737 270.421,234.438 276.905,235.864 278.876 C 237.898 281.686,240.681 285.167,240.799 285.049 C 240.855 284.993,240.035 283.855,238.976 282.519 C 235.696 278.377,234.762 276.981,232.502 272.842 C 231.532 271.067,230.739 269.740,230.738 269.895 M307.088 271.206 C 306.352 271.874,306.176 272.116,306.667 271.786 C 307.442 271.264,308.729 270.019,308.465 270.047 C 308.402 270.054,307.782 270.575,307.088 271.206 M212.211 280.504 C 212.211 280.718,215.741 281.829,216.339 281.803 C 216.616 281.791,216.021 281.529,215.018 281.220 C 214.014 280.912,212.972 280.591,212.702 280.507 C 212.432 280.424,212.211 280.423,212.211 280.504 M240.990 286.170 C 241.087 286.630,241.180 287.073,241.198 287.153 C 241.413 288.138,239.903 290.417,238.360 291.434 C 237.950 291.705,237.754 291.927,237.925 291.928 C 239.610 291.938,242.000 287.915,241.263 286.310 C 240.835 285.378,240.822 285.372,240.990 286.170 M212.757 290.406 C 213.906 290.772,214.903 291.015,214.972 290.946 C 215.041 290.877,214.922 290.766,214.707 290.700 C 214.492 290.634,213.660 290.378,212.860 290.132 C 212.059 289.886,211.238 289.697,211.035 289.712 C 210.832 289.727,211.607 290.040,212.757 290.406 M217.123 291.490 C 218.049 291.712,219.249 291.886,219.789 291.877 C 220.965 291.856,219.362 291.509,216.842 291.238 L 215.439 291.087 217.123 291.490 M223.158 292.221 C 225.489 292.483,232.532 292.482,235.088 292.220 C 236.295 292.096,234.024 292.018,229.193 292.017 C 224.415 292.016,222.049 292.096,223.158 292.221 " stroke="none" fill="#59829d" fill-rule="evenodd"></path><path id="path4" d="M212.772 107.228 C 212.772 107.382,212.172 107.510,211.439 107.512 C 209.672 107.516,206.511 108.521,200.905 110.862 C 190.323 115.280,174.490 124.744,168.247 130.383 C 168.074 130.539,167.253 131.234,166.423 131.928 C 162.912 134.860,156.525 141.102,155.590 142.514 C 154.894 143.564,155.343 143.623,159.208 142.983 C 168.803 141.394,169.847 141.676,170.502 146.040 C 171.091 149.969,170.162 151.187,166.175 151.712 C 161.388 152.343,157.015 153.103,157.558 153.210 C 157.836 153.265,159.226 153.117,160.646 152.881 C 162.066 152.645,164.239 152.311,165.474 152.139 C 166.709 151.967,168.125 151.766,168.620 151.692 C 171.527 151.259,171.693 143.737,168.837 141.866 C 168.074 141.366,168.450 141.335,160.008 142.586 C 157.929 142.895,156.124 143.043,155.997 142.916 C 155.588 142.507,160.550 137.506,167.189 131.637 C 168.975 130.058,175.385 125.348,178.793 123.110 C 185.080 118.983,190.326 116.061,197.193 112.863 C 200.617 111.268,200.444 111.341,203.930 110.026 C 205.628 109.385,207.237 108.746,207.505 108.606 C 207.773 108.466,208.341 108.368,208.768 108.389 C 209.430 108.422,209.451 108.445,208.912 108.549 C 208.565 108.616,208.281 108.770,208.281 108.892 C 208.281 109.014,207.519 109.583,206.589 110.158 C 200.702 113.791,197.804 118.416,193.297 131.368 C 192.108 134.786,190.877 139.909,190.877 141.441 C 190.877 143.989,193.524 147.328,195.569 147.359 C 196.253 147.369,196.772 148.111,196.772 149.080 C 196.772 150.941,199.333 153.263,201.385 153.263 C 201.735 153.263,202.414 153.400,202.893 153.567 C 203.372 153.734,203.991 153.820,204.268 153.758 C 204.545 153.696,204.014 153.493,203.088 153.307 C 198.995 152.488,197.528 151.515,197.188 149.395 C 196.864 147.377,196.758 147.088,196.340 147.088 C 195.676 147.088,193.630 145.711,192.661 144.613 C 191.180 142.935,191.245 139.530,192.841 135.158 C 193.456 133.473,193.968 131.734,193.966 131.330 C 193.966 131.078,194.154 130.509,194.384 130.067 C 194.615 129.625,194.804 129.050,194.805 128.788 C 194.806 128.527,194.933 128.236,195.088 128.140 C 195.242 128.045,195.368 127.720,195.368 127.418 C 195.368 127.116,195.489 126.650,195.637 126.382 C 196.129 125.488,197.614 122.069,197.614 121.831 C 197.614 121.565,199.060 118.672,199.301 118.456 C 199.387 118.379,199.862 117.684,200.357 116.912 C 201.424 115.250,204.208 112.487,206.175 111.138 C 206.947 110.608,207.621 110.081,207.673 109.965 C 207.724 109.849,207.921 109.754,208.111 109.754 C 208.301 109.754,209.017 109.481,209.702 109.146 C 210.387 108.812,211.506 108.335,212.189 108.088 C 213.431 107.638,214.053 106.947,213.216 106.947 C 212.972 106.947,212.772 107.074,212.772 107.228 M290.593 159.393 C 276.377 173.846,275.146 174.821,268.772 176.660 C 268.000 176.882,267.622 177.078,267.932 177.094 C 268.961 177.147,273.206 175.465,275.466 174.109 C 277.821 172.695,278.017 172.507,294.851 155.541 C 299.314 151.043,303.040 147.439,303.132 147.532 C 303.223 147.626,303.281 148.985,303.260 150.553 C 303.208 154.362,302.330 157.347,298.253 167.579 C 294.316 177.457,293.490 180.177,292.613 186.140 C 292.086 189.722,292.180 200.306,292.759 202.667 C 292.930 203.361,293.201 204.561,293.362 205.333 C 293.812 207.493,294.425 209.551,295.575 212.772 C 296.154 214.393,296.780 216.288,296.967 216.982 C 297.548 219.151,298.752 222.973,299.179 224.000 C 299.403 224.540,299.692 225.235,299.821 225.544 C 299.949 225.853,300.303 226.753,300.606 227.544 C 300.909 228.335,301.412 229.535,301.723 230.211 C 303.623 234.332,303.784 235.469,302.768 237.614 C 300.643 242.101,294.888 243.650,290.947 240.796 C 290.330 240.348,286.477 236.654,282.386 232.586 C 274.624 224.869,272.760 223.294,269.570 221.752 C 267.728 220.862,267.152 220.667,264.491 220.030 C 263.835 219.873,263.293 219.596,263.286 219.416 C 263.015 212.304,258.320 206.877,252.437 206.877 C 250.920 206.877,250.928 207.013,252.568 209.180 C 254.316 211.488,255.094 213.187,255.632 215.873 C 256.354 219.469,256.355 219.467,251.789 220.777 C 248.558 221.703,247.718 222.158,241.896 226.132 C 237.802 228.926,235.951 230.084,232.281 232.147 C 216.141 241.217,194.338 247.218,185.829 244.931 C 176.608 242.453,171.247 234.646,171.233 223.676 C 171.209 204.656,164.363 188.327,150.194 173.487 C 148.912 172.144,148.042 170.835,146.836 168.434 C 145.940 166.651,144.235 163.626,143.046 161.711 C 141.858 159.797,140.942 158.081,141.012 157.900 C 141.162 157.510,146.336 155.766,149.333 155.096 C 150.491 154.837,152.196 154.456,153.123 154.249 C 154.049 154.043,155.312 153.784,155.930 153.673 C 156.547 153.562,156.905 153.418,156.724 153.351 C 156.405 153.235,155.767 153.354,149.754 154.656 C 146.692 155.320,141.256 157.077,140.711 157.580 C 140.310 157.951,140.314 157.959,142.710 161.737 C 143.622 163.175,145.246 166.056,146.319 168.140 C 148.556 172.486,148.958 173.069,151.848 176.156 C 154.144 178.609,154.234 178.717,156.082 181.200 C 156.769 182.123,157.409 182.940,157.506 183.018 C 157.772 183.230,160.583 187.569,160.870 188.211 C 161.140 188.813,161.736 189.806,161.965 190.035 C 162.042 190.112,162.654 191.312,163.326 192.702 C 163.997 194.091,164.723 195.563,164.940 195.973 C 165.156 196.383,165.333 196.920,165.333 197.166 C 165.333 197.412,165.460 197.614,165.614 197.614 C 165.768 197.614,165.895 197.879,165.895 198.202 C 165.895 198.526,166.068 199.126,166.280 199.536 C 166.884 200.703,167.927 203.829,168.074 204.912 C 168.147 205.453,168.306 206.021,168.427 206.175 C 168.548 206.330,168.738 207.184,168.848 208.074 C 168.958 208.964,169.160 209.761,169.296 209.845 C 169.432 209.929,169.544 210.528,169.544 211.176 C 169.544 211.824,169.682 212.796,169.852 213.335 C 170.021 213.875,170.265 217.221,170.394 220.772 C 170.636 227.425,170.922 230.201,171.472 231.230 C 171.647 231.556,171.789 232.028,171.789 232.280 C 171.789 234.637,176.943 241.295,180.151 243.085 C 180.570 243.318,180.975 243.585,181.053 243.678 C 181.130 243.771,181.698 244.066,182.316 244.333 C 182.933 244.600,183.853 244.998,184.360 245.216 C 184.867 245.435,185.713 245.614,186.239 245.614 C 186.765 245.614,187.273 245.740,187.368 245.895 C 187.604 246.276,194.446 246.256,196.136 245.869 C 196.872 245.701,198.198 245.385,199.083 245.168 C 199.969 244.950,201.074 244.772,201.540 244.772 C 202.005 244.772,202.386 244.662,202.386 244.527 C 202.386 244.393,203.012 244.200,203.778 244.098 C 204.544 243.997,205.246 243.791,205.338 243.641 C 205.431 243.491,205.830 243.368,206.225 243.368 C 206.975 243.368,208.331 242.972,211.930 241.702 C 212.470 241.511,213.165 241.292,213.474 241.216 C 213.782 241.139,214.288 240.975,214.596 240.852 C 214.905 240.729,215.726 240.407,216.421 240.136 C 218.722 239.238,219.644 238.853,220.137 238.583 C 220.405 238.436,220.749 238.316,220.901 238.316 C 221.197 238.316,223.875 237.150,225.263 236.416 C 225.726 236.171,226.295 235.885,226.526 235.780 C 227.896 235.158,230.899 233.663,231.018 233.544 C 231.095 233.467,231.979 232.971,232.982 232.442 C 235.296 231.222,240.672 227.884,240.795 227.591 C 240.847 227.468,241.019 227.368,241.177 227.368 C 241.336 227.368,242.334 226.737,243.395 225.965 C 244.456 225.193,245.383 224.561,245.455 224.561 C 245.527 224.561,245.929 224.243,246.350 223.853 C 246.770 223.463,247.408 223.071,247.768 222.980 C 248.127 222.890,248.421 222.704,248.421 222.566 C 248.421 222.428,248.666 222.316,248.966 222.316 C 249.266 222.316,249.582 222.200,249.669 222.060 C 249.756 221.919,250.332 221.718,250.949 221.614 C 251.566 221.510,252.070 221.327,252.070 221.208 C 252.070 221.088,252.754 220.920,253.590 220.834 C 256.168 220.568,256.281 220.433,256.281 217.614 C 256.281 214.402,255.046 210.916,253.189 208.883 C 252.091 207.680,252.115 207.625,253.689 207.776 C 258.179 208.208,262.147 212.740,262.397 217.722 C 262.525 220.285,262.675 220.457,265.062 220.796 C 265.713 220.888,266.912 221.268,267.727 221.640 C 268.542 222.012,269.266 222.316,269.336 222.316 C 270.589 222.316,273.828 225.040,281.101 232.211 C 284.507 235.568,287.304 238.316,287.317 238.316 C 287.329 238.316,288.049 239.009,288.917 239.856 C 291.764 242.636,296.342 243.717,298.947 242.226 C 300.900 241.109,302.850 239.338,302.868 238.667 C 302.873 238.474,303.004 238.316,303.158 238.316 C 303.312 238.316,303.439 238.071,303.439 237.771 C 303.439 237.471,303.580 237.138,303.754 237.031 C 304.379 236.645,303.740 234.148,301.896 229.767 C 299.275 223.542,298.654 221.761,296.997 215.719 C 296.192 212.786,295.365 210.007,295.158 209.544 C 294.951 209.081,294.716 208.386,294.635 208.000 C 294.555 207.614,294.281 206.477,294.026 205.474 C 293.564 203.649,293.209 200.977,292.832 196.491 C 292.523 192.815,293.089 185.916,294.041 181.754 C 294.289 180.674,294.560 179.378,294.645 178.875 C 294.730 178.371,294.911 177.890,295.049 177.805 C 295.186 177.721,295.299 177.437,295.300 177.176 C 295.301 176.915,295.490 176.340,295.721 175.898 C 295.952 175.456,296.144 174.824,296.149 174.494 C 296.154 174.165,296.344 173.650,296.570 173.350 C 296.797 173.050,296.982 172.643,296.982 172.445 C 296.982 172.247,297.281 171.419,297.647 170.604 C 298.012 169.789,298.532 168.554,298.803 167.860 C 299.329 166.511,299.657 165.697,300.220 164.351 C 300.414 163.888,300.695 163.193,300.844 162.807 C 300.993 162.421,301.322 161.627,301.575 161.043 C 301.828 160.459,302.035 159.758,302.035 159.485 C 302.035 159.213,302.144 158.869,302.277 158.723 C 302.551 158.421,303.091 156.545,303.445 154.667 C 303.575 153.972,303.821 152.772,303.989 152.000 C 304.402 150.112,303.727 147.088,302.893 147.088 C 302.785 147.088,297.250 152.625,290.593 159.393 M205.754 154.134 C 206.295 154.273,207.242 154.500,207.860 154.638 C 218.114 156.931,232.348 162.615,239.820 167.400 C 240.725 167.979,241.520 168.398,241.587 168.331 C 241.875 168.043,233.108 163.263,228.736 161.325 C 223.643 159.068,214.862 155.957,211.509 155.223 C 210.891 155.088,209.375 154.723,208.140 154.411 C 206.905 154.099,205.642 153.852,205.333 153.863 C 205.025 153.873,205.214 153.996,205.754 154.134 M165.498 157.715 C 165.416 157.848,165.855 158.511,166.473 159.189 C 171.267 164.442,171.380 174.158,166.706 179.229 C 164.947 181.138,165.348 181.620,168.197 181.020 C 178.194 178.918,180.827 164.759,172.235 159.310 C 169.859 157.803,166.007 156.891,165.498 157.715 M170.612 159.095 C 172.269 159.879,175.078 162.530,175.334 163.551 C 175.425 163.914,175.606 164.211,175.737 164.211 C 175.868 164.211,176.058 164.654,176.159 165.196 C 176.261 165.738,176.456 166.251,176.593 166.335 C 177.492 166.891,176.676 172.575,175.386 174.737 C 175.110 175.200,174.767 175.843,174.624 176.165 C 174.322 176.847,172.170 178.803,171.195 179.282 C 169.191 180.268,168.381 180.520,167.471 180.440 L 166.464 180.351 167.390 179.368 C 168.273 178.431,169.263 176.766,169.263 176.218 C 169.263 176.076,169.453 175.770,169.684 175.539 C 169.916 175.307,170.105 174.866,170.105 174.558 C 170.105 174.250,170.243 173.740,170.412 173.425 C 171.877 170.688,170.140 162.670,167.384 159.451 C 166.874 158.855,166.456 158.299,166.456 158.216 C 166.456 157.859,169.247 158.449,170.612 159.095 M129.965 162.197 C 111.844 170.259,94.899 183.543,82.789 199.181 C 80.498 202.139,80.187 202.961,81.058 203.757 C 81.332 204.006,81.913 204.653,82.351 205.193 C 83.255 206.309,89.395 212.608,92.098 215.192 C 93.757 216.779,96.051 218.748,99.084 221.193 C 99.754 221.733,100.440 222.303,100.608 222.460 C 100.775 222.616,101.291 222.983,101.754 223.276 C 102.218 223.568,102.698 223.977,102.821 224.185 C 102.944 224.392,103.171 224.561,103.324 224.561 C 103.477 224.561,103.755 224.692,103.942 224.851 C 104.781 225.567,109.573 228.809,110.791 229.484 C 111.533 229.895,112.330 230.389,112.561 230.582 C 112.793 230.774,113.172 231.011,113.404 231.106 C 113.635 231.202,114.456 231.659,115.228 232.121 C 116.000 232.584,118.211 233.751,120.140 234.714 C 122.070 235.677,123.691 236.565,123.743 236.688 C 123.794 236.812,124.131 236.912,124.491 236.912 C 124.851 236.912,125.188 237.007,125.240 237.123 C 125.366 237.407,127.358 238.316,127.854 238.316 C 128.072 238.316,128.845 238.632,129.571 239.018 C 130.297 239.404,131.047 239.719,131.238 239.719 C 131.429 239.719,131.947 239.908,132.389 240.139 C 132.831 240.369,133.407 240.559,133.668 240.560 C 133.929 240.561,134.220 240.688,134.316 240.842 C 135.860 243.341,140.639 234.691,143.620 224.000 C 144.483 220.907,145.671 214.688,145.679 213.216 C 145.688 211.736,145.440 212.604,145.122 215.166 C 144.267 222.052,141.875 229.662,138.330 236.772 C 136.114 241.216,136.596 241.038,131.740 239.195 C 120.622 234.974,101.690 223.949,97.965 219.527 C 97.888 219.435,96.941 218.604,95.861 217.680 C 90.898 213.433,82.086 204.466,81.141 202.701 C 80.922 202.292,81.304 201.639,83.146 199.273 C 92.064 187.819,103.359 177.723,115.911 169.986 C 119.736 167.628,120.042 167.460,125.754 164.582 L 130.947 161.966 131.733 162.878 C 135.585 167.348,141.047 178.111,142.880 184.842 C 143.006 185.305,143.319 186.442,143.576 187.368 C 143.833 188.295,144.166 189.684,144.317 190.456 C 144.977 193.833,145.052 194.118,145.088 193.390 C 145.334 188.386,139.796 174.248,134.387 166.073 C 131.335 161.460,131.432 161.544,129.965 162.197 M218.947 168.193 C 218.947 168.419,219.273 168.910,219.671 169.284 C 224.759 174.064,224.920 183.668,220.017 189.877 C 218.662 191.593,218.982 191.959,221.409 191.471 C 230.957 189.554,234.033 178.794,227.131 171.453 C 224.601 168.762,218.947 166.510,218.947 168.193 M223.680 169.490 C 230.790 172.971,232.475 182.777,226.859 187.985 C 224.738 189.952,220.070 191.772,220.070 190.633 C 220.070 190.458,220.175 190.316,220.304 190.316 C 220.967 190.316,223.223 186.233,223.793 184.000 C 224.216 182.347,224.380 176.829,224.018 176.467 C 223.854 176.303,223.719 175.894,223.719 175.558 C 223.719 174.625,222.436 171.929,221.189 170.240 C 220.573 169.407,220.070 168.643,220.070 168.542 C 220.070 168.199,222.169 168.750,223.680 169.490 M241.965 168.538 C 241.965 168.735,249.626 173.919,251.277 174.839 C 255.344 177.106,261.880 178.245,266.246 177.447 C 266.941 177.319,265.819 177.245,263.298 177.252 C 256.916 177.269,253.313 176.081,247.378 171.999 C 243.817 169.550,241.965 168.366,241.965 168.538 M187.314 178.707 C 186.885 178.881,187.138 179.598,187.943 180.491 C 192.749 185.826,192.870 194.857,188.211 200.543 C 186.649 202.449,187.643 202.978,190.918 201.984 C 199.388 199.414,201.599 188.857,195.057 182.226 C 192.995 180.135,188.891 178.082,187.705 178.548 C 187.674 178.561,187.498 178.632,187.314 178.707 M191.578 180.239 C 192.704 180.769,196.211 183.957,196.211 184.451 C 196.211 184.567,196.371 184.829,196.566 185.033 C 197.508 186.014,198.587 189.802,198.365 191.350 C 197.837 195.035,197.118 196.628,195.049 198.692 C 193.024 200.714,188.789 202.480,188.211 201.544 C 188.115 201.390,188.146 201.263,188.280 201.263 C 188.953 201.263,191.331 196.960,191.770 194.947 C 192.450 191.827,192.463 190.206,191.835 186.539 C 191.609 185.223,189.711 181.494,188.748 180.476 C 187.486 179.141,188.976 179.017,191.578 180.239 M112.140 191.702 C 106.054 193.190,102.877 200.654,105.994 206.142 C 111.091 215.115,124.632 211.519,124.632 201.194 C 124.632 194.840,118.466 190.155,112.140 191.702 M230.004 192.961 C 229.873 193.305,231.226 195.415,231.911 195.935 C 232.016 196.015,232.486 196.891,232.954 197.881 C 235.421 203.097,234.718 209.876,231.268 214.159 C 229.615 216.210,229.697 216.523,231.849 216.367 C 238.457 215.889,243.424 207.947,241.220 201.383 C 239.947 197.595,235.719 193.496,232.561 192.990 C 231.944 192.891,231.152 192.751,230.801 192.679 C 230.403 192.597,230.103 192.703,230.004 192.961 M232.963 193.720 C 238.178 195.367,242.284 202.233,240.970 207.110 C 239.751 211.635,237.017 214.469,232.772 215.604 C 230.829 216.124,230.505 215.878,231.679 214.775 C 232.043 214.433,232.686 213.432,233.107 212.550 C 233.529 211.669,233.995 210.720,234.141 210.442 C 235.447 207.970,235.425 201.585,234.101 198.737 C 233.407 197.246,232.769 196.170,231.811 194.877 C 230.594 193.235,230.792 193.035,232.963 193.720 M145.184 195.088 C 145.187 195.628,145.286 196.449,145.404 196.912 C 145.607 197.713,145.618 197.700,145.623 196.632 C 145.626 196.014,145.527 195.193,145.404 194.807 C 145.201 194.174,145.179 194.201,145.184 195.088 M205.073 196.740 C 204.963 196.917,205.311 197.569,205.855 198.205 C 210.740 203.912,210.838 212.291,206.090 218.286 C 204.773 219.949,204.809 220.070,206.633 220.070 C 212.445 220.070,217.796 213.203,216.748 207.090 C 215.859 201.904,211.294 197.049,206.873 196.587 C 205.808 196.476,205.204 196.527,205.073 196.740 M207.926 197.390 C 209.981 197.909,211.504 199.106,214.173 202.304 C 214.329 202.490,214.456 202.775,214.456 202.936 C 214.456 203.096,214.580 203.228,214.731 203.228 C 214.883 203.228,215.090 203.575,215.191 204.000 C 215.293 204.425,215.516 204.949,215.688 205.166 C 216.145 205.744,216.110 212.268,215.649 212.421 C 215.456 212.485,215.298 212.719,215.298 212.941 C 215.298 214.981,211.275 218.360,207.628 219.383 C 205.602 219.951,205.539 219.889,206.741 218.512 C 207.273 217.902,207.711 217.256,207.714 217.076 C 207.717 216.896,207.814 216.706,207.930 216.655 C 208.262 216.507,209.123 214.742,209.123 214.209 C 209.123 213.943,209.250 213.600,209.404 213.445 C 210.879 211.971,209.594 200.140,207.960 200.140 C 207.828 200.140,207.719 199.981,207.719 199.787 C 207.719 199.592,207.435 199.117,207.088 198.731 C 205.389 196.842,205.439 196.763,207.926 197.390 M145.766 205.053 C 145.766 211.915,145.781 212.132,146.019 208.681 C 146.170 206.500,146.169 203.539,146.019 201.383 C 145.781 197.986,145.765 198.220,145.766 205.053 M188.729 216.011 C 188.647 216.225,189.076 217.004,189.683 217.744 C 194.486 223.595,194.533 231.731,189.799 237.675 C 186.996 241.196,193.967 239.557,197.490 235.867 C 203.986 229.064,199.444 217.178,189.807 215.759 C 189.175 215.666,188.830 215.747,188.729 216.011 M192.140 216.911 C 192.912 217.182,193.720 217.530,193.935 217.684 C 194.728 218.254,197.888 221.340,197.891 221.549 C 197.893 221.668,198.185 222.237,198.540 222.813 C 202.293 228.897,198.124 237.805,191.088 238.735 C 189.653 238.925,189.472 238.781,190.250 238.068 C 194.067 234.568,195.222 223.285,192.087 220.120 C 191.885 219.916,191.719 219.599,191.719 219.416 C 191.719 219.232,191.435 218.762,191.088 218.372 C 189.251 216.308,189.311 216.421,190.062 216.420 C 190.433 216.419,191.368 216.640,192.140 216.911 M197.053 267.894 C 197.053 269.199,201.438 273.946,204.823 276.306 C 211.368 280.868,221.889 283.935,222.791 281.544 C 222.966 281.081,223.310 280.702,223.555 280.702 C 224.163 280.702,224.195 280.801,222.418 277.258 C 221.548 275.524,220.368 272.945,219.797 271.527 C 218.423 268.115,218.096 267.633,217.391 267.992 C 216.500 268.446,214.006 269.193,213.382 269.193 C 213.065 269.193,212.727 269.319,212.632 269.474 C 212.536 269.628,212.055 269.756,211.562 269.757 C 211.070 269.759,210.047 269.949,209.289 270.178 C 207.327 270.774,202.880 270.733,201.258 270.105 C 199.704 269.503,197.895 268.396,197.895 268.047 C 197.895 267.905,197.705 267.789,197.474 267.789 C 197.242 267.789,197.053 267.837,197.053 267.894 M218.948 270.246 C 219.763 272.428,220.162 273.317,221.911 276.858 L 223.410 279.892 222.652 280.988 C 221.779 282.251,221.496 282.298,218.386 281.701 C 211.370 280.353,205.169 277.015,200.152 271.886 C 198.445 270.141,198.444 269.370,200.151 270.278 C 203.174 271.886,208.527 271.547,215.439 269.312 C 218.265 268.398,218.258 268.396,218.948 270.246 " stroke="none" fill="#7294ad" fill-rule="evenodd"></path></g></svg>